<?xml version="1.0" encoding="utf-8"?>
<!-- Generator: Adobe Illustrator 23.0.3, SVG Export Plug-In . SVG Version: 6.00 Build 0)  -->
<svg version="1.1" xmlns="http://www.w3.org/2000/svg" xmlns:xlink="http://www.w3.org/1999/xlink" x="0px" y="0px"
	 viewBox="0 0 380.72 94.5" style="enable-background:new 0 0 380.72 94.5;" xml:space="preserve">
<style type="text/css">
	.st0{display:none;}
	.st1{display:inline;fill:#FFFFFF;}
	.st2{display:inline;fill:none;stroke:#AACDC3;stroke-width:0.766;}
	
		.st3{display:inline;fill:none;stroke:#AACDC3;stroke-width:2;stroke-linecap:round;stroke-linejoin:round;stroke-dasharray:0,4.101;}
	.st4{display:inline;fill:none;stroke:#AACDC3;stroke-width:2;stroke-linecap:round;stroke-linejoin:round;}
	.st5{display:inline;}
	.st6{fill:#73AF93;}
	.st7{font-family:'gobCL';}
	.st8{font-size:9.1942px;}
	.st9{display:inline;fill:#73AF93;}
	.st10{clip-path:url(#SVGID_2_);fill:#ECF0F1;}
	.st11{clip-path:url(#SVGID_2_);fill:#C9D6DB;}
	.st12{clip-path:url(#SVGID_2_);fill:#354354;}
	.st13{clip-path:url(#SVGID_2_);fill:#343B48;}
	.st14{display:inline;fill:#694F84;}
	.st15{clip-path:url(#SVGID_4_);fill:#D7DEE7;}
	.st16{clip-path:url(#SVGID_4_);fill:#46385A;}
	.st17{clip-path:url(#SVGID_4_);fill:#7F8BA3;}
	.st18{clip-path:url(#SVGID_4_);fill:#694F84;}
	.st19{display:inline;fill:#46385A;}
	.st20{display:inline;fill:#A4B4CD;}
	.st21{display:inline;fill:#F9FCFE;}
	.st22{display:inline;fill:#D3DEEE;}
	.st23{clip-path:url(#SVGID_6_);fill:#584815;}
	.st24{display:inline;fill:#A5B736;}
	.st25{display:inline;fill:#CBD339;}
	.st26{clip-path:url(#SVGID_8_);fill:#96A52D;}
	.st27{clip-path:url(#SVGID_8_);fill:#746121;}
	.st28{clip-path:url(#SVGID_8_);fill:#584815;}
	.st29{clip-path:url(#SVGID_8_);fill:#655316;}
	.st30{display:inline;fill:#614922;}
	.st31{clip-path:url(#SVGID_10_);fill:#614922;}
	.st32{clip-path:url(#SVGID_12_);fill:#614922;}
	.st33{clip-path:url(#SVGID_14_);fill:#DDDDDD;}
	.st34{clip-path:url(#SVGID_14_);fill:#4F4216;}
	.st35{display:inline;fill:#8FA136;}
	.st36{clip-path:url(#SVGID_16_);fill:#AFB83A;}
	.st37{clip-path:url(#SVGID_16_);fill:#85932E;}
	.st38{clip-path:url(#SVGID_16_);fill:#675822;}
	.st39{display:inline;fill:#574220;}
	.st40{display:inline;fill:#E1EFFA;}
	.st41{clip-path:url(#SVGID_18_);fill:#1F2B35;}
	.st42{display:inline;fill:#AEBDD5;}
	.st43{clip-path:url(#SVGID_20_);fill:#535A67;}
	.st44{clip-path:url(#SVGID_20_);fill:#3B4754;}
	.st45{clip-path:url(#SVGID_20_);fill:#7F8A9D;}
	.st46{display:inline;fill:#4E79B4;}
	.st47{clip-path:url(#SVGID_22_);fill:#D9E1E9;}
	.st48{clip-path:url(#SVGID_22_);fill:#C1D7E4;}
	.st49{display:inline;fill:#C1D7E4;}
	.st50{clip-path:url(#SVGID_24_);fill:#C1D7E4;}
	.st51{clip-path:url(#SVGID_26_);fill:#A1CDEB;}
	.st52{clip-path:url(#SVGID_26_);fill:none;stroke:#A1CDEB;}
	.st53{clip-path:url(#SVGID_28_);fill:none;stroke:#A1CDEB;stroke-linecap:round;stroke-linejoin:round;stroke-miterlimit:10;}
	.st54{clip-path:url(#SVGID_28_);fill:#A1CDEB;}
	.st55{clip-path:url(#SVGID_28_);fill:none;stroke:#A1CDEB;}
	.st56{clip-path:url(#SVGID_30_);fill:#A1CDEB;}
	.st57{fill:#FFFFFF;}
	.st58{fill:none;stroke:#75A7D9;}
	.st59{clip-path:url(#SVGID_32_);fill:#EFD7D1;}
	.st60{clip-path:url(#SVGID_32_);fill:#AF968D;}
	.st61{clip-path:url(#SVGID_32_);fill:#E4CCC4;}
	.st62{clip-path:url(#SVGID_32_);fill:#E4B254;}
	.st63{clip-path:url(#SVGID_32_);fill:#DD9C36;}
	.st64{fill:#5A85B9;}
	.st65{fill:#DD9B19;}
	.st66{fill:#E5B34C;}
	.st67{clip-path:url(#SVGID_34_);fill:#C48518;}
	.st68{clip-path:url(#SVGID_34_);fill:#E5B34C;}
	.st69{clip-path:url(#SVGID_34_);fill:#DD9B19;}
	.st70{fill:none;stroke:#75A7D9;stroke-width:1.5;stroke-linecap:round;stroke-linejoin:round;stroke-dasharray:0,2.959;}
	.st71{fill:none;stroke:#75A7D9;stroke-width:1.5;stroke-linecap:round;stroke-linejoin:round;}
	.st72{fill:#A4B4CD;}
	.st73{fill:#F9FCFE;}
	.st74{fill:#BBD4EE;}
	.st75{fill:#608FC2;}
	.st76{clip-path:url(#SVGID_36_);fill:#D8E7F2;}
	.st77{clip-path:url(#SVGID_36_);fill:#E9F2F8;}
	.st78{fill:#D7DEE7;}
	.st79{clip-path:url(#SVGID_38_);fill:#D7DEE7;}
	.st80{fill:#3865A8;}
	.st81{fill:#C34643;}
	.st82{clip-path:url(#SVGID_40_);fill:#A4B4CD;}
	.st83{clip-path:url(#SVGID_42_);fill:#A1CDEB;}
	.st84{clip-path:url(#SVGID_44_);fill:#A385B5;}
	.st85{clip-path:url(#SVGID_44_);fill:none;stroke:#A385B5;}
	.st86{clip-path:url(#SVGID_46_);fill:none;stroke:#A385B5;stroke-linecap:round;stroke-linejoin:round;stroke-miterlimit:10;}
	.st87{clip-path:url(#SVGID_46_);fill:#A385B5;}
	.st88{clip-path:url(#SVGID_46_);fill:none;stroke:#A385B5;}
	.st89{display:inline;fill:none;stroke:#A385B5;}
	.st90{clip-path:url(#SVGID_48_);fill:#EFD7D1;}
	.st91{clip-path:url(#SVGID_48_);fill:#AF968D;}
	.st92{clip-path:url(#SVGID_48_);fill:#E4CCC4;}
	.st93{clip-path:url(#SVGID_48_);fill:#E4B254;}
	.st94{clip-path:url(#SVGID_48_);fill:#DD9C36;}
	.st95{fill:#7F5A95;}
	.st96{display:inline;fill:#DD9B19;}
	.st97{display:inline;fill:#E5B34C;}
	.st98{clip-path:url(#SVGID_50_);fill:#C48518;}
	.st99{clip-path:url(#SVGID_50_);fill:#E5B34C;}
	.st100{clip-path:url(#SVGID_50_);fill:#DD9B19;}
	
		.st101{display:inline;fill:none;stroke:#A385B5;stroke-width:1.5;stroke-linecap:round;stroke-linejoin:round;stroke-dasharray:0,2.959;}
	.st102{display:inline;fill:none;stroke:#A385B5;stroke-width:1.5;stroke-linecap:round;stroke-linejoin:round;}
	.st103{display:inline;fill:#BBD4EE;}
	.st104{display:inline;fill:#608FC2;}
	.st105{clip-path:url(#SVGID_52_);fill:#D8E7F2;}
	.st106{clip-path:url(#SVGID_52_);fill:#E9F2F8;}
	.st107{display:inline;fill:#D7DEE7;}
	.st108{clip-path:url(#SVGID_54_);fill:#D7DEE7;}
	.st109{display:inline;fill:#3865A8;}
	.st110{display:inline;fill:#C34643;}
	.st111{display:inline;fill:#7F5A95;}
</style>
<g id="Capa_1" class="st0">
	<rect x="5.42" y="35.67" class="st1" width="368.8" height="70.96"/>
	<rect x="5.42" y="35.67" class="st2" width="368.8" height="70.96"/>
	<line class="st3" x1="153.77" y1="40.39" x2="153.77" y2="103.96"/>
	<path class="st4" d="M153.77,106.01L153.77,106.01 M153.77,36.29L153.77,36.29"/>
	<line class="st3" x1="82.63" y1="40.39" x2="82.63" y2="103.96"/>
	<path class="st4" d="M82.63,106.01L82.63,106.01 M82.63,36.29L82.63,36.29"/>
	<line class="st3" x1="223.66" y1="40.39" x2="223.66" y2="103.96"/>
	<path class="st4" d="M223.66,106.01L223.66,106.01 M223.66,36.29L223.66,36.29"/>
	<line class="st3" x1="309.78" y1="40.39" x2="309.78" y2="103.96"/>
	<path class="st4" d="M309.78,106.01L309.78,106.01 M309.78,36.29L309.78,36.29"/>
	<text transform="matrix(1 0 0 1 25.3621 63.9992)" class="st5"><tspan x="0" y="0" class="st6 st7 st8">P</tspan><tspan x="4.39" y="0" class="st6 st7 st8">ostule a </tspan></text>
	<text transform="matrix(1 0 0 1 18.6316 73.1935)" class="st5"><tspan x="0" y="0" class="st6 st7 st8">t</tspan><tspan x="3.42" y="0" class="st6 st7 st8">r</tspan><tspan x="6.45" y="0" class="st6 st7 st8">avés de los </tspan></text>
	<text transform="matrix(1 0 0 1 22.5301 82.3879)" class="st9 st7 st8">canales de </text>
	<text transform="matrix(1 0 0 1 19.7259 91.5822)" class="st9 st7 st8">postulación.</text>
	<text transform="matrix(1 0 0 1 105.2689 59.4025)" class="st9 st7 st8">Un vez </text>
	<text transform="matrix(1 0 0 1 100.8465 68.5969)" class="st5"><tspan x="0" y="0" class="st6 st7 st8">ob</tspan><tspan x="9.54" y="0" class="st6 st7 st8">t</tspan><tspan x="12.73" y="0" class="st6 st7 st8">enido </tspan></text>
	<text transform="matrix(1 0 0 1 96.8836 77.7902)" class="st9 st7 st8">el subsidio, </text>
	<text transform="matrix(1 0 0 1 98.9158 86.9846)" class="st9 st7 st8">busque su </text>
	<text transform="matrix(1 0 0 1 101.2508 96.1789)" class="st9 st7 st8">vivienda.</text>
	<text transform="matrix(1 0 0 1 173.4896 68.5969)" class="st5"><tspan x="0" y="0" class="st6 st7 st8">F</tspan><tspan x="3.95" y="0" class="st6 st7 st8">irme el </tspan></text>
	<text transform="matrix(1 0 0 1 166.7044 77.7902)" class="st5"><tspan x="0" y="0" class="st6 st7 st8">cont</tspan><tspan x="17.1" y="0" class="st6 st7 st8">r</tspan><tspan x="20.13" y="0" class="st6 st7 st8">a</tspan><tspan x="24.59" y="0" class="st6 st7 st8">t</tspan><tspan x="27.79" y="0" class="st6 st7 st8">o de </tspan></text>
	<text transform="matrix(1 0 0 1 171.973 86.9846)" class="st9 st7 st8">arriendo.</text>
	<text transform="matrix(1 0 0 1 243.7977 59.4025)" class="st5"><tspan x="0" y="0" class="st6 st7 st8">P</tspan><tspan x="4.7" y="0" class="st6 st7 st8">r</tspan><tspan x="7.59" y="0" class="st6 st7 st8">esen</tspan><tspan x="25.35" y="0" class="st6 st7 st8">t</tspan><tspan x="28.54" y="0" class="st6 st7 st8">e los </tspan></text>
	<text transform="matrix(1 0 0 1 231.7718 68.5969)" class="st5"><tspan x="0" y="0" class="st6 st7 st8">an</tspan><tspan x="9.13" y="0" class="st6 st7 st8">t</tspan><tspan x="12.33" y="0" class="st6 st7 st8">eceden</tspan><tspan x="40.03" y="0" class="st6 st7 st8">t</tspan><tspan x="43.22" y="0" class="st6 st7 st8">es </tspan><tspan x="53.67" y="0" class="st6 st7 st8">p</tspan><tspan x="58.3" y="0" class="st6 st7 st8">a</tspan><tspan x="62.76" y="0" class="st6 st7 st8">r</tspan><tspan x="65.79" y="0" class="st6 st7 st8">a </tspan></text>
	<text transform="matrix(1 0 0 1 232.9212 77.7902)" class="st9 st7 st8">aplicar el subsidio </text>
	<text transform="matrix(1 0 0 1 233.9232 86.9846)" class="st9 st7 st8">en el Serviu de su </text>
	<text transform="matrix(1 0 0 1 254.0955 96.1789)" class="st5"><tspan x="0" y="0" class="st6 st7 st8">r</tspan><tspan x="2.9" y="0" class="st6 st7 st8">egión.</tspan></text>
	<text transform="matrix(1 0 0 1 324.4495 68.5969)" class="st5"><tspan x="0" y="0" class="st6 st7 st8">R</tspan><tspan x="4.54" y="0" class="st6 st7 st8">ealice el </tspan></text>
	<text transform="matrix(1 0 0 1 328.826 77.7902)" class="st5"><tspan x="0" y="0" class="st6 st7 st8">co</tspan><tspan x="9.01" y="0" class="st6 st7 st8">p</tspan><tspan x="13.63" y="0" class="st6 st7 st8">ago </tspan></text>
	<text transform="matrix(1 0 0 1 325.7918 86.9846)" class="st9 st7 st8">mensual.</text>
	<rect x="152.21" y="70.32" class="st9" width="3.12" height="9.23"/>
	<rect x="149.16" y="73.38" class="st9" width="9.23" height="3.12"/>
	<rect x="80.78" y="70.32" class="st9" width="3.12" height="9.23"/>
	<rect x="77.72" y="73.38" class="st9" width="9.23" height="3.12"/>
	<rect x="222.1" y="70.32" class="st9" width="3.12" height="9.23"/>
	<rect x="219.05" y="73.38" class="st9" width="9.23" height="3.12"/>
	<rect x="308.22" y="70.32" class="st9" width="3.12" height="9.23"/>
	<rect x="305.17" y="73.38" class="st9" width="9.23" height="3.12"/>
	<g class="st5">
		<defs>
			<rect id="SVGID_1_" x="-23.45" y="-573.42" width="850.39" height="708.66"/>
		</defs>
		<clipPath id="SVGID_2_">
			<use xlink:href="#SVGID_1_"  style="overflow:visible;"/>
		</clipPath>
		<path class="st10" d="M122.24,18.41c4.26,4.2,4.26,11,0,15.19c-4.26,4.2-11.16,4.2-15.42,0c-4.26-4.19-4.26-11,0-15.19
			C111.08,14.21,117.98,14.21,122.24,18.41"/>
		<path class="st11" d="M114.46,19.02c-2.04,0-3.86,0.7-5.19,2c-0.45,0.45-0.45,1.17,0,1.62c0.23,0.22,0.52,0.33,0.82,0.33
			c0.3,0,0.59-0.11,0.82-0.33c1.12-1.11,2.57-1.33,3.57-1.33c0.18,0,0.35,0.01,0.5,0.02c1.49,0.11,2.96,0.72,3.85,1.59
			c0.23,0.22,0.52,0.33,0.82,0.33c0.3,0,0.59-0.11,0.82-0.33c0.45-0.45,0.45-1.17,0-1.62c-1.28-1.26-3.26-2.1-5.31-2.26
			C114.92,19.03,114.69,19.02,114.46,19.02"/>
		<path class="st12" d="M107.52,32.82c-3.84-3.78-3.84-9.94,0-13.73c3.84-3.78,10.09-3.78,13.93,0c3.79,3.73,3.83,9.78,0.14,13.57
			c-0.06,0.04-0.11,0.08-0.16,0.13c-0.05,0.05-0.09,0.11-0.13,0.16C117.44,36.6,111.31,36.55,107.52,32.82 M124.23,16.35
			c-5.38-5.3-14.13-5.3-19.5,0c-5.38,5.3-5.38,13.92,0,19.22c4.98,4.9,12.84,5.26,18.25,1.08l1.86,1.83
			c-0.11,0.81,0.14,1.65,0.77,2.28l7.67,7.56c1.07,1.06,2.82,1.06,3.9,0s1.08-2.78,0-3.84l-7.67-7.56
			c-0.63-0.62-1.49-0.87-2.31-0.76l-1.86-1.83C129.57,29,129.21,21.25,124.23,16.35"/>
		<path class="st13" d="M124.23,16.35c-5.38-5.3-14.13-5.3-19.5,0l2.79,2.75c3.84-3.78,10.09-3.78,13.93,0
			c3.79,3.73,3.83,9.78,0.14,13.57c-0.06,0.04-0.11,0.08-0.16,0.13l15.75,15.52c1.08-1.06,1.08-2.78,0-3.84l-7.67-7.56
			c-0.63-0.62-1.49-0.87-2.31-0.76l-1.86-1.83C129.57,29,129.21,21.25,124.23,16.35"/>
	</g>
	
		<rect x="185.34" y="11.38" transform="matrix(0.7071 -0.7071 0.7071 0.7071 34.1345 141.5998)" class="st14" width="5.3" height="36.43"/>
	
		<rect x="175.18" y="10.89" transform="matrix(0.7071 -0.7071 0.7071 0.7071 38.0472 132.1534)" class="st14" width="6.73" height="18.52"/>
	<g class="st5">
		<defs>
			<rect id="SVGID_3_" x="-23.45" y="-573.42" width="850.39" height="708.66"/>
		</defs>
		<clipPath id="SVGID_4_">
			<use xlink:href="#SVGID_3_"  style="overflow:visible;"/>
		</clipPath>
		<path class="st15" d="M209.37,47.22l-3.95-2.66l-2.46,2.46l2.66,3.95c0.98-0.45,2.17-0.28,2.97,0.52l1.13,1.13l1.29-1.29
			l-1.13-1.13C209.09,49.39,208.92,48.2,209.37,47.22"/>
		<path class="st16" d="M199,44.35l3.95,2.66l2.46-2.46l-2.66-3.95c-0.98,0.45-2.17,0.28-2.97-0.52l-1.13-1.13l-1.29,1.29l1.13,1.13
			C199.28,42.18,199.45,43.37,199,44.35"/>
		<path class="st17" d="M206.66,47.51c-0.21-0.21-0.55-0.21-0.75,0c-0.21,0.21-0.21,0.55,0,0.75c0.2,0.2,0.53,0.21,0.74,0.01
			l3.71,3.71l0.03-0.03l-3.71-3.71C206.86,48.04,206.86,47.71,206.66,47.51"/>
		<path class="st18" d="M173.76,10.61c-0.71-0.71-1.87-0.71-2.58,0L169,12.79c-0.71,0.71-0.71,1.86,0,2.58L173.76,10.61z"/>
		<path class="st16" d="M182.47,22.15c0.43,0.43,0.43,1.13,0,1.56l-0.37,0.37c-0.43,0.43-1.13,0.43-1.56,0l-9.48-9.48l1.93-1.93
			L182.47,22.15z M173.76,10.61L169,15.37l0.64,0.64l0.93-0.93l9.48,9.48c0.69,0.69,1.83,0.69,2.52,0l0.37-0.37
			c0.7-0.69,0.7-1.83,0-2.52l-9.48-9.48l0.93-0.93L173.76,10.61z"/>
	</g>
	
		<rect x="182.05" y="26.56" transform="matrix(0.7071 -0.7071 0.7071 0.7071 35.2021 139.0222)" class="st19" width="6.73" height="0.91"/>
	<polygon class="st20" points="252.42,7.05 252.42,48.49 285.45,48.49 285.52,17.23 285.52,7.05 	"/>
	<polygon class="st21" points="250.37,4.77 250.37,46.21 283.4,46.21 283.47,14.95 273.35,4.77 	"/>
	<rect x="254.47" y="28.43" class="st22" width="23.47" height="1.16"/>
	<rect x="254.47" y="25.34" class="st22" width="23.47" height="1.16"/>
	<rect x="254.47" y="22.07" class="st22" width="23.47" height="1.16"/>
	<rect x="254.47" y="18.66" class="st22" width="23.47" height="1.16"/>
	<rect x="254.47" y="31.6" class="st22" width="23.47" height="1.35"/>
	<rect x="254.47" y="34.88" class="st22" width="13.04" height="1.16"/>
	<polygon class="st22" points="273.35,14.95 283.47,14.95 273.35,4.77 	"/>
	<rect x="254.47" y="8.52" class="st22" width="7.18" height="0.71"/>
	<rect x="254.44" y="10.02" class="st22" width="4.96" height="0.71"/>
	<rect x="254.47" y="11.42" class="st22" width="5.86" height="0.71"/>
	<g class="st5">
		<defs>
			<rect id="SVGID_5_" x="-23.45" y="-573.42" width="850.39" height="708.66"/>
		</defs>
		<clipPath id="SVGID_6_">
			<use xlink:href="#SVGID_5_"  style="overflow:visible;"/>
		</clipPath>
		<path class="st23" d="M349.04,23.4l-21.03,0.86c-1.88,0.01-2.8-2.67-1.27-3.76l18.44-8.12c1.41-0.99,3.39-0.35,3.93,1.27
			L349.04,23.4z"/>
	</g>
	<polygon class="st24" points="359.24,20.63 338.43,38.15 328.22,26.38 349.02,8.86 	"/>
	<polygon class="st25" points="354.93,21.68 340.15,34.13 337.36,33.91 332.3,28.09 332.52,25.33 347.3,12.89 350.09,13.1 
		355.15,18.93 	"/>
	<g class="st5">
		<defs>
			<rect id="SVGID_7_" x="-23.45" y="-573.42" width="850.39" height="708.66"/>
		</defs>
		<clipPath id="SVGID_8_">
			<use xlink:href="#SVGID_7_"  style="overflow:visible;"/>
		</clipPath>
		<path class="st26" d="M346.44,21.22c1.29,1.48,1.11,3.71-0.39,4.97c-1.5,1.26-3.76,1.09-5.05-0.39c-1.29-1.48-1.11-3.71,0.39-4.97
			C342.9,19.56,345.16,19.74,346.44,21.22"/>
		<path class="st26" d="M350.6,17.92c0.45,0.52,0.39,1.3-0.14,1.74c-0.52,0.44-1.32,0.38-1.76-0.14c-0.45-0.52-0.39-1.3,0.14-1.74
			C349.36,17.34,350.15,17.4,350.6,17.92"/>
		<path class="st26" d="M339.52,27.25c0.45,0.52,0.39,1.3-0.14,1.74c-0.52,0.44-1.32,0.38-1.76-0.14c-0.45-0.52-0.39-1.3,0.14-1.74
			C338.28,26.68,339.07,26.74,339.52,27.25"/>
		<path class="st27" d="M329.78,24.09l25.71-0.88c1.13,0.03,2.04,0.94,2.04,2.06l0.15,15.97c0.01,1.61-1.31,2.91-2.94,2.92
			l-25.87,0.07c-1.57,0-2.85-1.25-2.86-2.79l-0.04-19.68C325.99,21.76,326.04,24.1,329.78,24.09"/>
		<path class="st28" d="M357.84,33.87l-7.4,0.02c-1.08,0-1.96-0.86-1.97-1.92c-0.01-1.07,0.87-1.93,1.95-1.93l7.4-0.02
			c0.28,0,0.51,0.22,0.51,0.5l0.01,2.86C358.34,33.64,358.12,33.87,357.84,33.87"/>
		<path class="st29" d="M354.06,35.07l-0.84,0c-0.25,0-0.46-0.2-0.46-0.45L352.73,29c0-0.25,0.2-0.45,0.46-0.45l0.84,0
			c0.25,0,0.46,0.2,0.46,0.45l0.03,5.62C354.51,34.87,354.31,35.07,354.06,35.07"/>
	</g>
	<polygon class="st30" points="328.27,25.21 328.29,25.71 329.3,25.68 329.28,25.18 	"/>
	<g class="st5">
		<defs>
			<rect id="SVGID_9_" x="-23.45" y="-573.42" width="850.39" height="708.66"/>
		</defs>
		<clipPath id="SVGID_10_">
			<use xlink:href="#SVGID_9_"  style="overflow:visible;"/>
		</clipPath>
		<path class="st31" d="M353.01,25.02l-0.01-0.5l1.48-0.04c0.16-0.01,0.33,0.01,0.49,0.03L354.88,25c-0.12-0.02-0.25-0.03-0.38-0.03
			L353.01,25.02z M349.81,25.11l-0.02-0.5l1.92-0.05l0.02,0.5L349.81,25.11z M346.6,25.2l-0.01-0.5l1.92-0.05l0.01,0.5L346.6,25.2z
			 M343.4,25.29l-0.02-0.5l1.92-0.05l0.02,0.5L343.4,25.29z M340.19,25.38l-0.01-0.5l1.92-0.05l0.02,0.5L340.19,25.38z
			 M336.99,25.47l-0.02-0.5l1.92-0.05l0.01,0.5L336.99,25.47z M333.79,25.55l-0.02-0.5l1.92-0.05l0.02,0.5L333.79,25.55z
			 M356.29,27.15l-0.02-0.54c-0.01-0.4-0.16-0.78-0.43-1.08l0.38-0.33c0.35,0.38,0.55,0.88,0.57,1.4l0.02,0.53L356.29,27.15z
			 M330.58,25.64l-0.02-0.5l1.92-0.05l0.02,0.5L330.58,25.64z"/>
	</g>
	<polygon class="st30" points="356.34,28.41 356.38,29.41 356.89,29.39 356.85,28.4 	"/>
	<rect x="355.97" y="35.29" class="st30" width="0.51" height="1"/>
	<g class="st5">
		<defs>
			<rect id="SVGID_11_" x="-23.45" y="-573.42" width="850.39" height="708.66"/>
		</defs>
		<clipPath id="SVGID_12_">
			<use xlink:href="#SVGID_11_"  style="overflow:visible;"/>
		</clipPath>
		<path class="st32" d="M355.98,39.73l0-2.07h0.51l0,2.07H355.98z M354.96,42.81l-0.15-0.48c0.6-0.18,1.04-0.68,1.15-1.28l0.5,0.09
			C356.3,41.93,355.73,42.57,354.96,42.81 M351.4,42.91v-0.5l2.1,0v0.5L351.4,42.91z M347.9,42.9v-0.5l2.1,0l0,0.5L347.9,42.9z
			 M344.41,42.89v-0.5l2.1,0v0.5L344.41,42.89z M340.92,42.88v-0.5l2.1,0v0.5L340.92,42.88z M337.42,42.88v-0.5l2.1,0v0.5
			L337.42,42.88z M333.93,42.87l0-0.5l2.1,0v0.5L333.93,42.87z M330.43,42.86v-0.5l2.1,0v0.5L330.43,42.86z"/>
	</g>
	<polygon class="st30" points="328.02,42.86 329.03,42.86 329.03,42.36 328.02,42.36 	"/>
	<g class="st5">
		<defs>
			<rect id="SVGID_13_" x="-23.45" y="-573.42" width="850.39" height="708.66"/>
		</defs>
		<clipPath id="SVGID_14_">
			<use xlink:href="#SVGID_13_"  style="overflow:visible;"/>
		</clipPath>
		<path class="st33" d="M349.02,8.86l-4.55,3.84L349.02,8.86z M326.73,20.51C326.73,20.51,326.73,20.51,326.73,20.51
			C326.73,20.51,326.73,20.51,326.73,20.51 M326.72,20.52C326.72,20.52,326.72,20.52,326.72,20.52
			C326.72,20.52,326.72,20.52,326.72,20.52 M326.71,20.52C326.71,20.53,326.71,20.53,326.71,20.52
			C326.71,20.53,326.71,20.53,326.71,20.52 M326.7,20.53c-0.01,0-0.01,0.01-0.02,0.02C326.69,20.54,326.7,20.54,326.7,20.53
			 M326.68,20.55C326.68,20.55,326.67,20.55,326.68,20.55C326.67,20.55,326.68,20.55,326.68,20.55 M326.67,20.56L326.67,20.56
			L326.67,20.56 M325.99,22.35l0.04,19.1L325.99,22.35C325.99,22.35,325.99,22.35,325.99,22.35 M326.03,41.45
			c0.01,1.48,1.17,2.68,2.64,2.78h0C327.2,44.13,326.04,42.92,326.03,41.45 M335.43,44.22l-4,0.01L335.43,44.22z"/>
		<path class="st34" d="M344.46,12.7L344.46,12.7l-17.72,7.81c0,0-0.01,0-0.01,0.01c0,0,0,0,0,0c0,0,0,0,0,0c0,0,0,0-0.01,0
			c0,0,0,0,0,0c0,0-0.01,0-0.01,0.01c-0.01,0-0.01,0.01-0.02,0.02c0,0,0,0,0,0c0,0,0,0-0.01,0c0,0,0,0,0,0l0,0
			c-0.41,0.32-0.62,0.76-0.68,1.22c0.01,0.21,0.22,2.08,3.21,2.29c0.18,0.01,0.38,0.02,0.58,0.02l1.21-0.04L344.46,12.7z
			 M325.99,21.76L325.99,21.76c0,0,0,0.01,0,0.01L325.99,21.76z M325.99,21.76v0.03c-0.02,0.17-0.02,0.34,0,0.52v0.04c0,0,0,0,0,0
			L325.99,21.76z"/>
	</g>
	<polygon class="st35" points="349.02,8.86 344.46,12.7 330.98,24.05 334.17,23.94 347.3,12.89 350.09,13.1 351,14.15 352.3,12.64 	
		"/>
	<g class="st5">
		<defs>
			<rect id="SVGID_15_" x="-23.45" y="-573.42" width="850.39" height="708.66"/>
		</defs>
		<clipPath id="SVGID_16_">
			<use xlink:href="#SVGID_15_"  style="overflow:visible;"/>
		</clipPath>
		<path class="st36" d="M347.3,12.89l-13.13,11.06l1.18-0.04V23.9l4.8-0.16c-0.07-1.07,0.35-2.16,1.24-2.91
			c0.74-0.63,1.67-0.9,2.58-0.83c0.55,0.04,1.09,0.2,1.58,0.49l5.45-6.33l-0.91-1.04L347.3,12.89z"/>
		<path class="st37" d="M343.97,19.99c-0.9-0.06-1.83,0.21-2.58,0.84c-0.89,0.75-1.32,1.84-1.24,2.91l2.63-0.09l0.03,0l2.73-3.17
			C345.06,20.19,344.52,20.03,343.97,19.99"/>
		<path class="st38" d="M325.99,21.76 M325.99,21.76l0,0.59l0.04,19.1c0.01,1.48,1.17,2.68,2.64,2.78c0.07,0.01,0.14,0.01,0.21,0.01
			l2.54-0.01l4-0.01l-0.01-1.35l-1.49,0v-0.5l1.49,0l-0.06-16.86l-1.57,0.04l-0.02-0.5l1.59-0.04l0-1.11l-1.18,0.04l-3.18,0.11
			l-1.21,0.04c-0.2,0-0.4-0.01-0.58-0.02c-2.98-0.21-3.19-2.08-3.2-2.29l0,0l0,0C325.99,21.77,325.99,21.76,325.99,21.76
			 M330.58,25.65l-0.01-0.5l1.92-0.05l0.01,0.5L330.58,25.65z M328.29,25.71l-0.01-0.5l1.01-0.03l0.02,0.5L328.29,25.71z
			 M330.43,42.86v-0.5l2.1,0v0.5L330.43,42.86z M328.02,42.86v-0.5l1.01,0v0.5L328.02,42.86z M342.82,23.65l-0.03,0L342.82,23.65"/>
	</g>
	<polygon class="st39" points="328.27,25.21 328.29,25.71 329.3,25.68 329.28,25.18 	"/>
	<path class="st39" d="M330.57,25.15l0.02,0.5l1.92-0.05l-0.02-0.5L330.57,25.15z M333.77,25.06l0.01,0.5l1.57-0.04l0-0.5
		L333.77,25.06z"/>
	<path class="st39" d="M333.93,42.87l1.49,0l0-0.5l-1.49,0V42.87z M330.43,42.86l2.1,0.01v-0.5l-2.1,0V42.86z"/>
	<polygon class="st39" points="328.02,42.86 329.03,42.86 329.03,42.36 328.02,42.36 	"/>
	<rect x="22.64" y="13.66" class="st40" width="40.87" height="25.87"/>
	<g class="st5">
		<defs>
			<rect id="SVGID_17_" x="-23.45" y="-573.42" width="850.39" height="708.66"/>
		</defs>
		<clipPath id="SVGID_18_">
			<use xlink:href="#SVGID_17_"  style="overflow:visible;"/>
		</clipPath>
		<path class="st41" d="M23.5,38.97h39.1v-24.1H23.5V38.97z M63.85,41.47h-41.6c-0.69,0-1.25-0.56-1.25-1.25v-26.6
			c0-0.69,0.56-1.25,1.25-1.25h41.6c0.69,0,1.25,0.56,1.25,1.25v26.6C65.1,40.91,64.54,41.47,63.85,41.47"/>
	</g>
	<rect x="34.75" y="40.22" class="st42" width="15.77" height="2.01"/>
	<g class="st5">
		<defs>
			<rect id="SVGID_19_" x="-23.45" y="-573.42" width="850.39" height="708.66"/>
		</defs>
		<clipPath id="SVGID_20_">
			<use xlink:href="#SVGID_19_"  style="overflow:visible;"/>
		</clipPath>
		<path class="st43" d="M42.63,41.08H35.3c-0.3,0-0.55-0.25-0.55-0.55v-0.31H16.42v2.03c0,1.1,0.89,1.99,1.99,1.99h24.21V41.08z"/>
		<path class="st44" d="M42.63,41.08h7.32c0.31,0,0.55-0.25,0.55-0.55v-0.31h18.33v2.03c0,1.1-0.89,1.99-1.99,1.99H42.63V41.08z"/>
		<path class="st45" d="M67.08,42.66h-5.9c-0.23,0-0.42-0.19-0.42-0.42c0-0.23,0.19-0.42,0.42-0.42h5.9c0.23,0,0.42,0.18,0.42,0.42
			C67.49,42.48,67.31,42.66,67.08,42.66"/>
		<path class="st43" d="M43.55,13.66c0,0.25-0.21,0.46-0.46,0.46c-0.25,0-0.46-0.21-0.46-0.46c0-0.25,0.21-0.46,0.46-0.46
			C43.34,13.2,43.55,13.41,43.55,13.66"/>
	</g>
	<rect x="31.38" y="21.28" class="st46" width="23.41" height="1.4"/>
	<rect x="31.38" y="22.68" class="st1" width="23.41" height="10.54"/>
	<g class="st5">
		<defs>
			<rect id="SVGID_21_" x="-23.45" y="-573.42" width="850.39" height="708.66"/>
		</defs>
		<clipPath id="SVGID_22_">
			<use xlink:href="#SVGID_21_"  style="overflow:visible;"/>
		</clipPath>
		<path class="st47" d="M52.39,26.27h-8.62c-0.12,0-0.22-0.1-0.22-0.22v-0.1c0-0.12,0.1-0.22,0.22-0.22h8.62
			c0.12,0,0.22,0.1,0.22,0.22v0.1C52.61,26.17,52.51,26.27,52.39,26.27"/>
		<path class="st47" d="M42.42,26c0,0.19,0.15,0.34,0.34,0.34c0.19,0,0.34-0.15,0.34-0.34c0-0.19-0.15-0.34-0.34-0.34
			C42.57,25.66,42.42,25.81,42.42,26"/>
		<path class="st47" d="M52.39,27.76h-8.62c-0.12,0-0.22-0.1-0.22-0.22v-0.1c0-0.12,0.1-0.22,0.22-0.22h8.62
			c0.12,0,0.22,0.1,0.22,0.22v0.1C52.61,27.67,52.51,27.76,52.39,27.76"/>
		<path class="st47" d="M42.42,27.49c0,0.19,0.15,0.34,0.34,0.34c0.19,0,0.34-0.15,0.34-0.34c0-0.19-0.15-0.34-0.34-0.34
			C42.57,27.15,42.42,27.31,42.42,27.49"/>
		<path class="st47" d="M52.39,29.16h-8.62c-0.12,0-0.22-0.1-0.22-0.22v-0.1c0-0.12,0.1-0.22,0.22-0.22h8.62
			c0.12,0,0.22,0.1,0.22,0.22v0.1C52.61,29.06,52.51,29.16,52.39,29.16"/>
		<path class="st47" d="M42.42,28.88c0,0.19,0.15,0.34,0.34,0.34c0.19,0,0.34-0.15,0.34-0.34c0-0.19-0.15-0.34-0.34-0.34
			C42.57,28.55,42.42,28.7,42.42,28.88"/>
		<path class="st48" d="M34.56,26.72h0.84v-1h-0.43c-0.23,0-0.41,0.19-0.41,0.41V26.72z"/>
		<path class="st48" d="M39.4,26.72v-0.59c0-0.23-0.19-0.41-0.41-0.41H38.4l0.6,1H39.4z"/>
		<path class="st48" d="M34.56,28.44v0.59c0,0.23,0.18,0.41,0.41,0.41h0.44v-1.01H34.56z"/>
		<path class="st48" d="M36.11,27.58c0-0.2-0.16-0.36-0.36-0.36h-1.19v0.72h1.19C35.94,27.94,36.11,27.78,36.11,27.58"/>
		<path class="st48" d="M38.39,29.44h0.6c0.23,0,0.41-0.18,0.41-0.41v-0.59h-0.41L38.39,29.44z"/>
	</g>
	<polygon class="st49" points="37.07,29.44 37.82,29.44 38.71,27.94 39.4,27.94 39.4,27.22 38.71,27.22 37.82,25.73 37.09,25.73 
		38.15,27.59 	"/>
	<g class="st5">
		<defs>
			<rect id="SVGID_23_" x="-23.45" y="-573.42" width="850.39" height="708.66"/>
		</defs>
		<clipPath id="SVGID_24_">
			<use xlink:href="#SVGID_23_"  style="overflow:visible;"/>
		</clipPath>
		<path class="st50" d="M36.6,27.58c0,0.41-0.3,0.74-0.69,0.82v1.04h0.59l1.08-1.86l-1.06-1.86H35.9v1.01
			C36.3,26.81,36.6,27.16,36.6,27.58"/>
	</g>
</g>
<g id="Capa_2">
	<g>
		<defs>
			<rect id="SVGID_25_" x="-22" y="-589" width="850.39" height="708.66"/>
		</defs>
		<clipPath id="SVGID_26_">
			<use xlink:href="#SVGID_25_"  style="overflow:visible;"/>
		</clipPath>
		<path class="st51" d="M448.59-505.83c0.18,0.1,0.32,0.24,0.42,0.41c0.1,0.18,0.15,0.37,0.15,0.59c0,0.16-0.03,0.31-0.08,0.45
			s-0.14,0.25-0.24,0.35c-0.1,0.1-0.23,0.18-0.37,0.23c-0.14,0.06-0.3,0.08-0.48,0.08c-0.35,0-0.63-0.11-0.85-0.32
			c-0.22-0.21-0.33-0.47-0.33-0.79c0-0.34,0.11-0.62,0.32-0.84s0.5-0.33,0.85-0.33C448.21-505.98,448.42-505.93,448.59-505.83
			 M449.2-500.44c-0.12,0.22-0.28,0.4-0.49,0.52c-0.21,0.12-0.44,0.18-0.7,0.18c-0.26,0-0.49-0.06-0.7-0.18
			c-0.21-0.12-0.37-0.29-0.49-0.51c-0.12-0.22-0.18-0.48-0.18-0.77c0-0.46,0.13-0.81,0.39-1.06c0.26-0.25,0.57-0.38,0.95-0.38
			c0.27,0,0.51,0.06,0.73,0.17c0.22,0.11,0.38,0.28,0.5,0.5c0.12,0.22,0.18,0.47,0.18,0.76
			C449.38-500.92,449.32-500.67,449.2-500.44 M446.52-503.22c-0.95,0.37-1.42,1.06-1.42,2.06c0,0.47,0.11,0.89,0.34,1.27
			c0.22,0.38,0.55,0.67,0.99,0.89c0.44,0.22,0.97,0.32,1.59,0.32c0.6,0,1.11-0.11,1.55-0.32c0.44-0.22,0.77-0.52,1-0.9
			c0.23-0.38,0.34-0.81,0.34-1.28c0-0.32-0.05-0.61-0.16-0.87c-0.11-0.26-0.26-0.49-0.47-0.69c-0.21-0.2-0.47-0.36-0.79-0.48
			c0.37-0.18,0.65-0.42,0.84-0.7c0.19-0.29,0.28-0.61,0.28-0.98c0-0.29-0.05-0.56-0.16-0.81c-0.11-0.25-0.27-0.48-0.5-0.69
			c-0.22-0.2-0.5-0.36-0.84-0.48c-0.34-0.12-0.72-0.17-1.17-0.17c-0.53,0-0.98,0.1-1.38,0.3c-0.39,0.2-0.69,0.46-0.89,0.79
			s-0.3,0.68-0.3,1.05C445.37-504.14,445.75-503.58,446.52-503.22 M441.24-498.89c0.14,0.15,0.32,0.23,0.55,0.23
			c0.51,0,0.77-0.37,0.77-1.12v-6.39c0-0.27-0.06-0.48-0.18-0.63c-0.12-0.15-0.28-0.23-0.47-0.23c-0.18,0-0.29,0.03-0.36,0.1
			c-0.06,0.07-0.2,0.25-0.41,0.54c-0.21,0.29-0.45,0.55-0.72,0.79c-0.27,0.23-0.63,0.46-1.08,0.67c-0.3,0.14-0.51,0.26-0.63,0.35
			c-0.12,0.09-0.18,0.23-0.18,0.42c0,0.16,0.06,0.31,0.18,0.43c0.12,0.13,0.26,0.19,0.42,0.19c0.33,0,0.96-0.36,1.91-1.09v5.08
			C441.04-499.27,441.11-499.04,441.24-498.89"/>
		<path class="st52" d="M435.66-486.83c0,0-2.84,0-2.84,2.84v11.02c0,0,0,2.84,2.84,2.84h21.09c0,0,2.83,0,2.83-2.84V-484
			c0,0,0-2.84-2.83-2.84H435.66z"/>
		<path class="st52" d="M435.08-470.83h12.2c0,0,0.58-1.87-1.1-2.8c-1.68-0.93-3.65-1.44-3.43-2.32c0.22-0.88,1.46-1.61,1.32-3.44
			c-0.15-1.83,0.39-4.1-2.84-4.1c-3.23,0-2.64,2.92-2.72,3.51s0.11,2.52,0.73,3.11c0.62,0.59,0.7,1.03,0.18,1.46
			c-0.99,0.84-3.58,1.5-4.02,2.6C434.97-471.7,435.08-470.83,435.08-470.83z"/>
	</g>
	<g>
		<defs>
			<rect id="SVGID_27_" x="-22" y="-589" width="850.39" height="708.66"/>
		</defs>
		<clipPath id="SVGID_28_">
			<use xlink:href="#SVGID_27_"  style="overflow:visible;"/>
		</clipPath>
		<path class="st53" d="M459.51-368.82c0-0.84-0.3-1.61-0.8-2.24v1.14c0,0.67-0.29,1.26-0.74,1.68c-1-4.29-5.22-7.51-10.29-7.51
			c-1.23,0-2.41,0.2-3.51,0.55c-0.26-0.95-1.12-1.64-2.15-1.64h-0.61v2.97c-2.02,1.35-3.49,3.34-4.02,5.63h-1.55
			c-0.41,0-0.75,0.33-0.75,0.75v4.72c0,0.41,0.33,0.75,0.75,0.75h1.98c0.49,1.35,1.3,2.51,2.55,3.39v3.02
			c0,0.41,0.34,0.75,0.75,0.75h3.43c0.41,0,0.75-0.33,0.75-0.75v-1.35c0.73,0.08,1.51,0.13,2.38,0.13c1.44-0.01,2.68-0.14,3.77-0.36
			v0.92c0,0.78,0.34,1.41,0.75,1.41h3.44c0.41,0,0.75-0.63,0.75-1.41v-3.57c1.34-1.63,1.78-3.79,1.81-6.18
			C459-366.74,459.51-367.73,459.51-368.82z"/>
		<path class="st54" d="M441.68-367.99c0,0.64-0.52,1.16-1.16,1.16c-0.64,0-1.16-0.52-1.16-1.16c0-0.64,0.52-1.16,1.16-1.16
			C441.16-369.15,441.68-368.63,441.68-367.99"/>
		<path class="st53" d="M455.24-379.41c0,1.42-1.15,2.57-2.57,2.57c-1.42,0-2.57-1.15-2.57-2.57c0-1.42,1.15-2.57,2.57-2.57
			C454.09-381.98,455.24-380.83,455.24-379.41z"/>
		<path class="st53" d="M446.67-372.67c0,0,2.79-0.73,5,0.31c2.07,0.98,2.9,2.58,2.9,2.58"/>
		<path class="st55" d="M442.51-333.74l-1.81-0.39c0,0-1.02-0.22-1.24,0.81l-4.31,20.28c0,0-0.22,1.03,0.81,1.25l17.11,3.64
			c0,0,1.02,0.22,1.24-0.81l4.31-20.28c0,0,0.22-1.03-0.81-1.25l-1.78-0.38"/>
		<path class="st55" d="M450.12-336.44c-2.34-0.49-2.66,0.34-2.66,0.34l-0.6,0.83l-3.02-0.64c0,0-0.72-0.15-0.87,0.54l-0.5,2.34
			c0,0-0.15,0.69,0.57,0.84l11.82,2.5c0,0,0.72,0.15,0.86-0.54l0.5-2.34c0,0,0.15-0.69-0.57-0.84l-2.93-0.62l-0.29-1.02
			C452.44-335.04,452.46-335.94,450.12-336.44z"/>
	</g>
	<g>
		<defs>
			<rect id="SVGID_29_" x="-22" y="-589" width="850.39" height="708.66"/>
		</defs>
		<clipPath id="SVGID_30_">
			<use xlink:href="#SVGID_29_"  style="overflow:visible;"/>
		</clipPath>
		<path class="st56" d="M450.02-239.57c-0.28,0-0.5-0.23-0.5-0.51v-8.12h-3.84v8.12c0,0.28-0.23,0.51-0.5,0.51h-7.91
			c-0.28,0-0.5-0.23-0.5-0.51c0-0.28,0.23-0.51,0.5-0.51h7.41v-8.12c0-0.28,0.22-0.51,0.5-0.51h4.85c0.28,0,0.5,0.23,0.5,0.51v8.63
			C450.52-239.8,450.29-239.57,450.02-239.57"/>
		<path class="st56" d="M457.82-239.57h-7.8c-0.28,0-0.5-0.23-0.5-0.51c0-0.28,0.23-0.51,0.5-0.51h7.3v-10.75h-20.3
			c-0.28,0-0.5-0.23-0.5-0.51c0-0.28,0.23-0.51,0.5-0.51h20.81c0.28,0,0.5,0.23,0.5,0.51v11.77
			C458.32-239.8,458.1-239.57,457.82-239.57"/>
		<path class="st56" d="M455.62-244.39c-0.28,0-0.5-0.23-0.5-0.51v-3.82h-2.19v3.82c0,0.28-0.23,0.51-0.5,0.51
			c-0.28,0-0.5-0.23-0.5-0.51v-4.33c0-0.28,0.22-0.51,0.5-0.51h3.2c0.28,0,0.5,0.23,0.5,0.51v4.33
			C456.12-244.62,455.9-244.39,455.62-244.39"/>
		<path class="st56" d="M442.47-244.39c-0.28,0-0.5-0.23-0.5-0.51v-3.82h-2.19v3.82c0,0.28-0.23,0.51-0.5,0.51
			c-0.28,0-0.5-0.23-0.5-0.51v-4.33c0-0.28,0.22-0.51,0.5-0.51h3.2c0.28,0,0.5,0.23,0.5,0.51v4.33
			C442.97-244.62,442.75-244.39,442.47-244.39"/>
		<path class="st56" d="M443.93-259.91h-7.15c-0.28,0-0.5,0.23-0.5,0.51v19.26c0,0.28,0.23,0.51,0.5,0.51c0.28,0,0.5-0.23,0.5-0.51
			v-18.75h6.65V-259.91z M458.32-251.85v-7.55c0-0.28-0.23-0.51-0.5-0.51h-6.7v1.02h6.2v7.04c0,0.28,0.23,0.51,0.5,0.51
			C458.1-251.34,458.32-251.57,458.32-251.85"/>
	</g>
	<rect x="6.43" y="37.58" class="st57" width="367.92" height="46.15"/>
	<rect x="6.43" y="37.58" class="st58" width="367.92" height="46.15"/>
	<g>
		<defs>
			<rect id="SVGID_31_" x="-22" y="-589" width="850.39" height="708.66"/>
		</defs>
		<clipPath id="SVGID_32_">
			<use xlink:href="#SVGID_31_"  style="overflow:visible;"/>
		</clipPath>
		<path class="st59" d="M91.31,31.13c0-1.52-0.54-2.92-1.46-4.08v2.07c0,1.21-0.52,2.29-1.35,3.06c-1.83-7.8-9.54-13.65-18.79-13.65
			c-2.25,0-4.4,0.36-6.4,1c-0.48-1.72-2.05-2.99-3.94-2.99h-1.11v5.4c-3.69,2.46-6.37,6.07-7.34,10.25h-2.84
			c-0.76,0-1.37,0.61-1.37,1.36v8.59c0,0.75,0.61,1.36,1.37,1.36h3.63c0.9,2.45,2.38,4.56,4.66,6.16v5.5c0,0.75,0.61,1.36,1.37,1.36
			h6.28c0.76,0,1.37-0.61,1.37-1.36v-2.46c1.34,0.15,2.76,0.24,4.34,0.23c2.64-0.01,4.9-0.25,6.88-0.65v1.68
			c0,1.42,0.61,2.56,1.37,2.56h6.28c0.76,0,1.37-1.15,1.37-2.56v-6.5c2.45-2.96,3.25-6.89,3.3-11.25
			C90.38,34.91,91.31,33.12,91.31,31.13"/>
		<path class="st60" d="M58.73,32.72c0,1.01-0.83,1.83-1.85,1.83c-1.02,0-1.85-0.82-1.85-1.83c0-1.01,0.83-1.83,1.85-1.83
			C57.9,30.88,58.73,31.7,58.73,32.72"/>
		<path class="st60" d="M81.84,28.71c-0.3,0-0.6-0.15-0.78-0.42c-2.39-3.61-7.59-5.66-11.84-4.64c-0.5,0.12-1.01-0.19-1.13-0.69
			c-0.12-0.5,0.19-1,0.69-1.12c4.96-1.18,11.04,1.2,13.83,5.43c0.28,0.43,0.16,1-0.27,1.29C82.19,28.66,82.01,28.71,81.84,28.71"/>
		<path class="st61" d="M66.29,47.42c-6.64,0.41-13.61-1.81-13.61-1.81c0.88,1.56,2.08,2.93,3.67,4.05v5.49
			c0,0.75,0.61,1.36,1.37,1.36h6.28c0.76,0,1.37-0.61,1.37-1.36v-2.46c1.34,0.15,2.76,0.24,4.34,0.23c2.64-0.01,4.9-0.25,6.88-0.65
			v1.68c0,1.42,0.61,2.56,1.37,2.56h6.28c0.76,0,1.37-1.15,1.37-2.56v-6.5c2.39-2.88,3.2-6.69,3.29-10.92H88.8
			C84.82,42.61,75.87,46.84,66.29,47.42"/>
		<path class="st62" d="M75.84,10.57c0,2.78-2.26,5.02-5.06,5.02c-2.79,0-5.06-2.25-5.06-5.02c0-2.77,2.26-5.02,5.06-5.02
			C73.57,5.54,75.84,7.79,75.84,10.57"/>
		<path class="st62" d="M79.96,26.93c1.34-0.9,2.22-2.43,2.22-4.16c0-2.78-2.27-5.03-5.06-5.03c-2.8,0-5.07,2.25-5.07,5.03
			c0,0.22,0.02,0.43,0.05,0.64C75,23.57,77.96,24.87,79.96,26.93"/>
		<path class="st62" d="M79.96,26.93c1.34-0.9,2.22-2.43,2.22-4.16c0-2.78-2.27-5.03-5.06-5.03c-2.8,0-5.07,2.25-5.07,5.03
			c0,0.22,0.02,0.43,0.05,0.64C75,23.57,77.96,24.87,79.96,26.93"/>
		<path class="st63" d="M78.98,26.05c1.16-0.64,1.95-1.88,1.95-3.29c0-2.08-1.7-3.77-3.79-3.77c-2.1,0-3.79,1.69-3.79,3.77
			c0,0.27,0.03,0.54,0.09,0.8C75.45,23.91,77.41,24.78,78.98,26.05"/>
		<path class="st63" d="M74.55,10.57c0,2.07-1.69,3.75-3.77,3.75s-3.77-1.68-3.77-3.75c0-2.07,1.69-3.74,3.77-3.74
			S74.55,8.5,74.55,10.57"/>
		<path class="st62" d="M72.18,10.57c0-0.59-0.38-1.1-0.9-1.3V8.84c0-0.28-0.23-0.5-0.5-0.5c-0.28,0-0.5,0.22-0.5,0.5v0.42
			c-0.53,0.2-0.9,0.7-0.9,1.3c0,0.59,0.38,1.1,0.9,1.3v0.43c0,0.27,0.22,0.5,0.5,0.5c0.28,0,0.5-0.22,0.5-0.5v-0.43
			C71.81,11.66,72.18,11.16,72.18,10.57"/>
		<path class="st62" d="M76.74,24.2v0.43l0,0.01c0.26,0.13,0.51,0.26,0.76,0.4c0.14-0.09,0.24-0.24,0.24-0.41V24.2
			c0.53-0.2,0.9-0.7,0.9-1.3s-0.38-1.1-0.9-1.3v-0.43c0-0.28-0.22-0.5-0.5-0.5c-0.28,0-0.5,0.22-0.5,0.5v0.43
			c-0.53,0.2-0.9,0.7-0.9,1.3S76.21,24,76.74,24.2"/>
	</g>
	<g>
		<path class="st64" d="M56.18,69.02h-0.75l1.85-6.75h1.65l1.71,6.75H59.8l-0.41-1.72h-2.77L56.18,69.02z M57.78,62.94l-1,3.71h2.46
			l-0.89-3.71H57.78z"/>
		<path class="st64" d="M61.48,69.02v-6.9h0.76v1.97c0,0.2-0.03,0.51-0.07,0.62c0.27-0.29,0.76-0.69,1.48-0.69
			c1.2,0,1.69,0.67,1.69,1.91v3.09h-0.78v-2.96c0-0.91-0.36-1.44-1.12-1.44c-0.51,0-0.9,0.29-1.2,0.56v3.84H61.48z"/>
		<path class="st64" d="M70.55,66.56c0,1.65-0.8,2.56-2.11,2.56c-1.33,0-2.09-0.89-2.09-2.56c0-1.44,0.68-2.54,2.09-2.54
			C69.8,64.03,70.55,65.11,70.55,66.56z M69.77,66.56c0-1.28-0.43-1.97-1.33-1.97c-0.92,0-1.32,0.72-1.32,1.97
			c0,1.2,0.35,1.99,1.32,1.99C69.39,68.55,69.77,67.87,69.77,66.56z"/>
		<path class="st64" d="M74.19,64.79c-0.14-0.05-0.36-0.09-0.63-0.09c-0.47,0-0.85,0.27-1.1,0.53v3.8H71.7v-4.9h0.51l0.14,0.62
			c0.21-0.28,0.64-0.69,1.27-0.69c0.36,0,0.58,0.07,0.62,0.08L74.19,64.79z"/>
		<path class="st64" d="M77.58,64.79c-0.14-0.05-0.36-0.09-0.63-0.09c-0.47,0-0.85,0.27-1.1,0.53v3.8h-0.76v-4.9h0.51l0.14,0.62
			c0.21-0.28,0.64-0.69,1.27-0.69c0.36,0,0.58,0.07,0.62,0.08L77.58,64.79z"/>
		<path class="st64" d="M82.27,66.56c0,1.65-0.8,2.56-2.11,2.56c-1.33,0-2.09-0.89-2.09-2.56c0-1.44,0.68-2.54,2.09-2.54
			C81.52,64.03,82.27,65.11,82.27,66.56z M81.49,66.56c0-1.28-0.43-1.97-1.33-1.97c-0.92,0-1.32,0.72-1.32,1.97
			c0,1.2,0.35,1.99,1.32,1.99C81.11,68.55,81.49,67.87,81.49,66.56z"/>
	</g>
	<rect x="297.12" y="52.59" class="st65" width="17.31" height="3.93"/>
	<rect x="297.12" y="52.58" class="st66" width="17.31" height="1.11"/>
	<rect x="297.12" y="48.66" class="st65" width="17.31" height="3.92"/>
	<rect x="297.12" y="48.66" class="st66" width="17.31" height="1.11"/>
	<rect x="297.12" y="44.74" class="st65" width="17.31" height="3.92"/>
	<rect x="297.12" y="44.74" class="st66" width="17.31" height="1.11"/>
	<rect x="297.12" y="40.81" class="st65" width="17.31" height="3.92"/>
	<rect x="297.12" y="40.81" class="st66" width="17.31" height="1.11"/>
	<rect x="297.12" y="36.89" class="st65" width="17.31" height="3.92"/>
	<rect x="297.12" y="36.89" class="st66" width="17.31" height="1.11"/>
	<rect x="297.12" y="32.96" class="st65" width="17.31" height="3.93"/>
	<rect x="297.12" y="32.96" class="st66" width="17.31" height="1.11"/>
	<rect x="297.12" y="29.04" class="st65" width="17.31" height="3.92"/>
	<rect x="297.12" y="29.04" class="st66" width="17.31" height="1.11"/>
	<rect x="297.12" y="25.12" class="st65" width="17.31" height="3.92"/>
	<rect x="297.12" y="25.11" class="st66" width="17.31" height="1.11"/>
	<rect x="315.91" y="52.59" class="st65" width="17.31" height="3.93"/>
	<rect x="315.91" y="52.58" class="st66" width="17.31" height="1.11"/>
	<rect x="315.91" y="48.66" class="st65" width="17.31" height="3.92"/>
	<rect x="315.91" y="48.66" class="st66" width="17.31" height="1.11"/>
	<rect x="315.91" y="44.74" class="st65" width="17.31" height="3.92"/>
	<rect x="315.91" y="44.74" class="st66" width="17.31" height="1.11"/>
	<rect x="315.91" y="40.81" class="st65" width="17.31" height="3.92"/>
	<rect x="315.91" y="40.81" class="st66" width="17.31" height="1.11"/>
	<g>
		<defs>
			<rect id="SVGID_33_" x="-22" y="-589" width="850.39" height="708.66"/>
		</defs>
		<clipPath id="SVGID_34_">
			<use xlink:href="#SVGID_33_"  style="overflow:visible;"/>
		</clipPath>
		<path class="st67" d="M291.49,56.18c1.94,1.26,5.74-1.16,8.49-5.41c2.75-4.24,3.4-8.7,1.46-9.96c-0.55-0.36-2.11-1.31-2.11-1.31
			c-1.98,0.48-5.27,3.1-7.25,6.16c-2.05,3.17-2.84,7.39-2.35,9.38C289.73,55.04,290.99,55.86,291.49,56.18"/>
		<path class="st68" d="M289.73,55.04c1.94,1.26,5.74-1.16,8.49-5.41c2.74-4.24,3.39-8.7,1.45-9.96c-1.94-1.25-5.74,1.17-8.49,5.41
			C288.44,49.33,287.78,53.78,289.73,55.04"/>
		<path class="st69" d="M290.99,53.09c1.45,0.94,4.28-0.87,6.33-4.03c2.05-3.16,2.53-6.49,1.08-7.43c-1.45-0.94-4.28,0.87-6.33,4.03
			C290.03,48.83,289.54,52.15,290.99,53.09"/>
		<path class="st68" d="M293.32,49.48c-0.42-0.27-0.4-1.07-0.03-1.95L293,47.34c-0.19-0.13-0.13-0.57,0.14-0.99
			c0.27-0.42,0.65-0.66,0.84-0.54l0.29,0.19c0.67-0.7,1.38-1.04,1.8-0.77c0.42,0.27,0.4,1.06,0.03,1.95l0.29,0.19
			c0.2,0.13,0.13,0.57-0.14,0.99c-0.27,0.43-0.65,0.67-0.84,0.54l-0.29-0.19C294.46,49.41,293.74,49.75,293.32,49.48"/>
	</g>
	<g>
		<path class="st64" d="M274.18,66.29v2.73h-0.76v-6.75h1.81c1.31,0,2.37,0.55,2.37,1.93c0,0.97-0.54,1.59-1.36,1.92l1.53,2.9h-0.92
			l-1.36-2.75c-0.09,0.01-0.28,0.02-0.38,0.02H274.18z M275.12,62.9h-0.94v2.76h0.94c1.02,0,1.66-0.47,1.66-1.43
			C276.78,63.25,276.15,62.9,275.12,62.9z"/>
		<path class="st64" d="M278.93,66.79c0,1.21,0.62,1.74,1.55,1.74c0.63,0,1.19-0.29,1.52-0.49l0.19,0.54
			c-0.41,0.25-1.05,0.54-1.79,0.54c-1.34,0-2.23-0.89-2.23-2.58c0-1.55,0.76-2.52,2.1-2.52c1.38,0,1.96,1.11,1.96,2.34v0.43H278.93z
			 M280.24,64.61c-0.93,0-1.31,0.82-1.31,1.66h2.56C281.49,65.42,281.2,64.61,280.24,64.61z"/>
		<path class="st64" d="M287.01,68.69c-0.3,0.17-0.92,0.43-1.63,0.43c-1.24,0-2.14-0.73-2.14-2.55c0-1.66,0.91-2.55,2.14-2.55
			c0.56,0,1.16,0.12,1.6,0.39l-0.22,0.54c-0.38-0.22-0.84-0.32-1.34-0.32c-0.88,0-1.42,0.7-1.42,1.94c0,1.38,0.54,1.96,1.42,1.96
			c0.57,0,1.06-0.2,1.41-0.41L287.01,68.69z"/>
		<path class="st64" d="M291.27,69.02l-0.11-0.56c-0.24,0.27-0.78,0.66-1.52,0.66c-1.09,0-1.69-0.65-1.69-1.99v-3.01h0.76v2.96
			c0,1.01,0.32,1.43,1.11,1.43c0.47,0,0.9-0.22,1.21-0.48v-3.91h0.77v4.9H291.27z"/>
		<path class="st64" d="M295.55,64.79c-0.14-0.05-0.36-0.09-0.63-0.09c-0.47,0-0.85,0.27-1.1,0.53v3.8h-0.76v-4.9h0.51l0.14,0.62
			c0.21-0.28,0.64-0.69,1.27-0.69c0.36,0,0.58,0.07,0.62,0.08L295.55,64.79z"/>
		<path class="st64" d="M296.92,65.33c0,1.05,2.43,0.68,2.43,2.34c0,0.79-0.61,1.46-1.7,1.46c-0.59,0-1.14-0.21-1.48-0.42l0.22-0.56
			c0.24,0.19,0.77,0.41,1.25,0.41c0.6,0,0.97-0.33,0.97-0.84c0-1.18-2.4-0.74-2.4-2.4c0-0.66,0.5-1.29,1.62-1.29
			c0.52,0,1.07,0.1,1.47,0.32l-0.18,0.56c-0.38-0.2-0.78-0.3-1.28-0.3C297.22,64.61,296.92,64.88,296.92,65.33z"/>
		<path class="st64" d="M304.5,66.56c0,1.65-0.8,2.56-2.11,2.56c-1.33,0-2.09-0.89-2.09-2.56c0-1.44,0.68-2.54,2.09-2.54
			C303.75,64.03,304.5,65.11,304.5,66.56z M303.72,66.56c0-1.28-0.43-1.97-1.33-1.97c-0.92,0-1.32,0.72-1.32,1.97
			c0,1.2,0.35,1.99,1.32,1.99C303.34,68.55,303.72,67.87,303.72,66.56z"/>
		<path class="st64" d="M306.21,65.33c0,1.05,2.43,0.68,2.43,2.34c0,0.79-0.61,1.46-1.7,1.46c-0.59,0-1.14-0.21-1.48-0.42l0.22-0.56
			c0.24,0.19,0.77,0.41,1.25,0.41c0.6,0,0.97-0.33,0.97-0.84c0-1.18-2.4-0.74-2.4-2.4c0-0.66,0.5-1.29,1.62-1.29
			c0.52,0,1.07,0.1,1.47,0.32l-0.18,0.56c-0.38-0.2-0.78-0.3-1.28-0.3C306.51,64.61,306.21,64.88,306.21,65.33z"/>
		<path class="st64" d="M312.73,69.35v1.57h-0.77v-6.8h0.59l0.12,0.58c0.34-0.38,0.86-0.68,1.43-0.68c1.25,0,1.87,0.89,1.87,2.54
			c0,1.73-0.86,2.56-2.03,2.56c-0.59,0-0.97-0.21-1.32-0.56C312.62,68.56,312.73,69.04,312.73,69.35z M312.73,68.02
			c0.3,0.31,0.71,0.53,1.16,0.53c0.89,0,1.31-0.58,1.31-1.99c0-1.29-0.37-1.95-1.26-1.95c-0.48,0-0.92,0.27-1.21,0.57V68.02z"/>
		<path class="st64" d="M319.62,64.79c-0.14-0.05-0.36-0.09-0.63-0.09c-0.47,0-0.85,0.27-1.1,0.53v3.8h-0.76v-4.9h0.51l0.14,0.62
			c0.21-0.28,0.64-0.69,1.27-0.69c0.36,0,0.58,0.07,0.62,0.08L319.62,64.79z"/>
		<path class="st64" d="M324.3,66.56c0,1.65-0.8,2.56-2.11,2.56c-1.33,0-2.09-0.89-2.09-2.56c0-1.44,0.68-2.54,2.09-2.54
			C323.55,64.03,324.3,65.11,324.3,66.56z M323.52,66.56c0-1.28-0.43-1.97-1.33-1.97c-0.92,0-1.32,0.72-1.32,1.97
			c0,1.2,0.35,1.99,1.32,1.99C323.14,68.55,323.52,67.87,323.52,66.56z"/>
		<path class="st64" d="M326.22,69.35v1.57h-0.77v-6.8h0.59l0.12,0.58c0.34-0.38,0.86-0.68,1.43-0.68c1.25,0,1.87,0.89,1.87,2.54
			c0,1.73-0.86,2.56-2.03,2.56c-0.59,0-0.97-0.21-1.32-0.56C326.11,68.56,326.22,69.04,326.22,69.35z M326.22,68.02
			c0.3,0.31,0.71,0.53,1.16,0.53c0.89,0,1.31-0.58,1.31-1.99c0-1.29-0.37-1.95-1.26-1.95c-0.48,0-0.92,0.27-1.21,0.57V68.02z"/>
		<path class="st64" d="M331.01,69.02v-4.29l-0.54-0.11v-0.5h1.28v4.9H331.01z M330.94,62.2h0.81V63h-0.81V62.2z"/>
		<path class="st64" d="M337.11,66.56c0,1.65-0.8,2.56-2.11,2.56c-1.33,0-2.09-0.89-2.09-2.56c0-1.44,0.68-2.54,2.09-2.54
			C336.36,64.03,337.11,65.11,337.11,66.56z M336.33,66.56c0-1.28-0.43-1.97-1.33-1.97c-0.92,0-1.32,0.72-1.32,1.97
			c0,1.2,0.35,1.99,1.32,1.99C335.95,68.55,336.33,67.87,336.33,66.56z"/>
		<path class="st64" d="M338.82,65.33c0,1.05,2.43,0.68,2.43,2.34c0,0.79-0.61,1.46-1.7,1.46c-0.59,0-1.14-0.21-1.48-0.42l0.22-0.56
			c0.24,0.19,0.77,0.41,1.25,0.41c0.6,0,0.97-0.33,0.97-0.84c0-1.18-2.4-0.74-2.4-2.4c0-0.66,0.5-1.29,1.62-1.29
			c0.52,0,1.07,0.1,1.47,0.32l-0.18,0.56c-0.38-0.2-0.78-0.3-1.28-0.3C339.12,64.61,338.82,64.88,338.82,65.33z"/>
		<path class="st64" d="M348.6,66.56c0,1.65-0.8,2.56-2.11,2.56c-1.33,0-2.09-0.89-2.09-2.56c0-1.44,0.68-2.54,2.09-2.54
			C347.85,64.03,348.6,65.11,348.6,66.56z M347.82,66.56c0-1.28-0.43-1.97-1.33-1.97c-0.92,0-1.32,0.72-1.32,1.97
			c0,1.2,0.35,1.99,1.32,1.99C347.44,68.55,347.82,67.87,347.82,66.56z"/>
	</g>
	<g>
		<path class="st64" d="M274.6,78.31c-1.84,0-2.76-1.4-2.76-3.51c0-2.18,1.06-3.44,2.78-3.44c0.82,0,1.59,0.2,2.08,0.55l-0.3,0.62
			c-0.39-0.3-1.08-0.49-1.74-0.49c-1.38,0-2.02,1.1-2.02,2.73c0,1.74,0.67,2.86,2,2.86c0.74,0,1.38-0.28,1.86-0.64l0.24,0.62
			C276.17,78.01,275.47,78.31,274.6,78.31z"/>
		<path class="st64" d="M280.03,73.98c-0.14-0.05-0.36-0.09-0.63-0.09c-0.47,0-0.85,0.27-1.1,0.53v3.8h-0.76v-4.9h0.51l0.14,0.62
			c0.21-0.28,0.64-0.69,1.27-0.69c0.36,0,0.58,0.07,0.62,0.08L280.03,73.98z"/>
		<path class="st64" d="M281.29,75.99c0,1.21,0.62,1.74,1.55,1.74c0.63,0,1.19-0.29,1.52-0.49l0.19,0.54
			c-0.41,0.25-1.05,0.54-1.79,0.54c-1.34,0-2.23-0.89-2.23-2.58c0-1.55,0.76-2.52,2.1-2.52c1.38,0,1.96,1.11,1.96,2.34v0.43H281.29z
			 M282.6,73.8c-0.93,0-1.31,0.82-1.31,1.66h2.56C283.85,74.61,283.56,73.8,282.6,73.8z M281.5,72.56l-0.11-0.45l2.21-0.82
			l0.15,0.57L281.5,72.56z"/>
		<path class="st64" d="M288.98,77.62c-0.28,0.37-0.83,0.69-1.41,0.69c-1.16,0-1.97-0.86-1.97-2.56c0-1.49,0.74-2.54,2.05-2.54
			c0.61,0,1.03,0.2,1.31,0.42c-0.03-0.26-0.04-0.51-0.04-0.8v-1.52h0.76v6.9h-0.57L288.98,77.62z M288.92,74.15
			c-0.23-0.16-0.64-0.35-1.19-0.35c-0.92,0-1.36,0.72-1.36,1.96c0,1.21,0.39,1.99,1.31,1.99c0.44,0,0.84-0.19,1.24-0.62V74.15z"/>
		<path class="st64" d="M291.39,78.21v-4.29l-0.54-0.11v-0.5h1.28v4.9H291.39z M291.32,71.39h0.81v0.8h-0.81V71.39z"/>
		<path class="st64" d="M295.11,78.31c-0.69,0-1.26-0.35-1.26-1.5v-2.95h-0.74v-0.55h0.74v-0.89l0.76-0.24v1.13h1.43v0.55h-1.43
			v3.04c0,0.52,0.19,0.77,0.65,0.77c0.26,0,0.62-0.13,0.78-0.21l0.15,0.56C295.98,78.15,295.51,78.31,295.11,78.31z"/>
		<path class="st64" d="M300.96,75.75c0,1.65-0.8,2.56-2.11,2.56c-1.33,0-2.09-0.89-2.09-2.56c0-1.44,0.68-2.54,2.09-2.54
			C300.21,73.22,300.96,74.3,300.96,75.75z M300.18,75.75c0-1.28-0.43-1.97-1.33-1.97c-0.92,0-1.32,0.72-1.32,1.97
			c0,1.2,0.35,1.99,1.32,1.99C299.8,77.74,300.18,77.06,300.18,75.75z"/>
		<path class="st64" d="M304.31,78.21v-6.9h0.76v1.97c0,0.2-0.03,0.51-0.07,0.62c0.27-0.29,0.76-0.69,1.48-0.69
			c1.2,0,1.69,0.67,1.69,1.91v3.09h-0.78v-2.96c0-0.91-0.36-1.44-1.12-1.44c-0.51,0-0.9,0.29-1.2,0.56v3.84H304.31z"/>
		<path class="st64" d="M309.74,78.21v-4.29l-0.54-0.11v-0.5h1.28v4.9H309.74z M309.67,71.39h0.81v0.8h-0.81V71.39z"/>
		<path class="st64" d="M312.58,78.54v1.57h-0.77v-6.8h0.59l0.12,0.58c0.34-0.38,0.86-0.68,1.43-0.68c1.25,0,1.87,0.89,1.87,2.54
			c0,1.73-0.86,2.56-2.03,2.56c-0.59,0-0.97-0.21-1.32-0.56C312.47,77.75,312.58,78.23,312.58,78.54z M312.58,77.21
			c0.3,0.31,0.71,0.53,1.16,0.53c0.89,0,1.31-0.58,1.31-1.99c0-1.29-0.37-1.95-1.26-1.95c-0.48,0-0.92,0.27-1.21,0.57V77.21z"/>
		<path class="st64" d="M321.01,75.75c0,1.65-0.8,2.56-2.11,2.56c-1.33,0-2.09-0.89-2.09-2.56c0-1.44,0.68-2.54,2.09-2.54
			C320.26,73.22,321.01,74.3,321.01,75.75z M320.23,75.75c0-1.28-0.43-1.97-1.33-1.97c-0.92,0-1.32,0.72-1.32,1.97
			c0,1.2,0.35,1.99,1.32,1.99C319.85,77.74,320.23,77.06,320.23,75.75z"/>
		<path class="st64" d="M323.81,78.31c-0.69,0-1.26-0.35-1.26-1.5v-2.95h-0.74v-0.55h0.74v-0.89l0.76-0.24v1.13h1.43v0.55h-1.43
			v3.04c0,0.52,0.19,0.77,0.65,0.77c0.26,0,0.62-0.13,0.78-0.21l0.15,0.56C324.68,78.15,324.21,78.31,323.81,78.31z"/>
		<path class="st64" d="M326.23,75.99c0,1.21,0.62,1.74,1.55,1.74c0.63,0,1.19-0.29,1.52-0.49l0.19,0.54
			c-0.41,0.25-1.05,0.54-1.79,0.54c-1.34,0-2.23-0.89-2.23-2.58c0-1.55,0.76-2.52,2.1-2.52c1.38,0,1.96,1.11,1.96,2.34v0.43H326.23z
			 M327.54,73.8c-0.93,0-1.31,0.82-1.31,1.66h2.56C328.79,74.61,328.5,73.8,327.54,73.8z"/>
		<path class="st64" d="M334.31,77.88c-0.3,0.17-0.92,0.43-1.63,0.43c-1.24,0-2.14-0.73-2.14-2.55c0-1.66,0.91-2.55,2.14-2.55
			c0.56,0,1.16,0.12,1.6,0.39l-0.22,0.54c-0.38-0.22-0.84-0.32-1.34-0.32c-0.88,0-1.42,0.7-1.42,1.94c0,1.38,0.54,1.96,1.42,1.96
			c0.57,0,1.06-0.2,1.41-0.41L334.31,77.88z"/>
		<path class="st64" d="M338.34,78.21l-0.13-0.63c-0.29,0.37-0.82,0.73-1.51,0.73c-1,0-1.58-0.67-1.58-1.5c0-0.85,0.62-1.4,1.73-1.4
			h1.27v-0.39c0-0.85-0.37-1.21-1.11-1.21c-0.62,0-1.12,0.16-1.48,0.32l-0.2-0.55c0.39-0.17,0.97-0.37,1.78-0.37
			c1.16,0,1.75,0.6,1.75,1.77v3.23H338.34z M338.12,75.94h-1.15c-0.83,0-1.11,0.36-1.11,0.85c0,0.59,0.32,0.98,1.03,0.98
			c0.48,0,0.94-0.28,1.23-0.61V75.94z"/>
		<path class="st64" d="M342.65,73.98c-0.14-0.05-0.36-0.09-0.63-0.09c-0.47,0-0.85,0.27-1.1,0.53v3.8h-0.76v-4.9h0.51l0.14,0.62
			c0.21-0.28,0.64-0.69,1.27-0.69c0.36,0,0.58,0.07,0.62,0.08L342.65,73.98z"/>
		<path class="st64" d="M343.94,78.21v-4.29l-0.54-0.11v-0.5h1.28v4.9H343.94z M343.87,71.39h0.81v0.8h-0.81V71.39z"/>
		<path class="st64" d="M350.04,75.75c0,1.65-0.8,2.56-2.11,2.56c-1.33,0-2.09-0.89-2.09-2.56c0-1.44,0.68-2.54,2.09-2.54
			C349.29,73.22,350.04,74.3,350.04,75.75z M349.26,75.75c0-1.28-0.43-1.97-1.33-1.97c-0.92,0-1.32,0.72-1.32,1.97
			c0,1.2,0.35,1.99,1.32,1.99C348.88,77.74,349.26,77.06,349.26,75.75z"/>
	</g>
	<line class="st70" x1="132.05" y1="41.42" x2="132.05" y2="81.37"/>
	<path class="st71" d="M132.05,82.85L132.05,82.85 M132.05,38.46L132.05,38.46"/>
	<line class="st70" x1="250.32" y1="41.42" x2="250.32" y2="81.37"/>
	<path class="st71" d="M250.32,82.85L250.32,82.85 M250.32,38.46L250.32,38.46"/>
	<rect x="166.47" y="24.2" class="st72" width="51.44" height="34.21"/>
	<rect x="164.74" y="22.56" class="st73" width="51.44" height="33.95"/>
	<polygon class="st74" points="205.05,53.86 205.05,48.53 208.53,48.53 208.53,53.86 206.79,51.99 	"/>
	<polygon class="st75" points="206.66,43.88 207.12,44.31 207.69,44.04 207.99,44.6 208.62,44.51 208.74,45.14 209.36,45.25 
		209.28,45.88 209.83,46.18 209.56,46.75 210,47.21 209.56,47.67 209.83,48.24 209.28,48.54 209.36,49.17 208.74,49.29 
		208.62,49.91 207.99,49.83 207.69,50.38 207.12,50.11 206.66,50.55 206.2,50.11 205.63,50.38 205.33,49.83 204.7,49.91 
		204.58,49.29 203.96,49.17 204.04,48.54 203.49,48.24 203.76,47.67 203.32,47.21 203.76,46.75 203.49,46.18 204.04,45.88 
		203.96,45.25 204.58,45.14 204.7,44.51 205.33,44.6 205.63,44.04 206.2,44.31 	"/>
	<g>
		<defs>
			<rect id="SVGID_35_" x="-22" y="-589" width="850.39" height="708.66"/>
		</defs>
		<clipPath id="SVGID_36_">
			<use xlink:href="#SVGID_35_"  style="overflow:visible;"/>
		</clipPath>
		<path class="st76" d="M204.98,45.57C204.98,45.57,204.98,45.57,204.98,45.57c-0.91,0.91-0.93,2.37-0.02,3.28
			c0.91,0.91,2.37,0.9,3.28-0.01l0,0L204.98,45.57z"/>
		<path class="st77" d="M208.24,48.83c0,0,0.04-0.04,0.04-0.04c0.91-0.91,0.92-2.37,0.01-3.28c-0.91-0.91-2.37-0.9-3.28,0.01
			c0,0-0.04,0.04-0.04,0.04L208.24,48.83z"/>
	</g>
	<polygon class="st57" points="206.66,47.95 205.79,48.55 206.09,47.54 205.25,46.89 206.31,46.87 206.66,45.87 207.01,46.87 
		208.07,46.89 207.22,47.54 207.53,48.55 	"/>
	<rect x="169.47" y="34.55" class="st78" width="41.98" height="1.12"/>
	<rect x="169.47" y="31.55" class="st78" width="41.98" height="1.12"/>
	<rect x="169.47" y="37.62" class="st78" width="41.98" height="1.31"/>
	<rect x="169.47" y="40.81" class="st78" width="31.86" height="1.12"/>
	<g>
		<defs>
			<rect id="SVGID_37_" x="-22" y="-589" width="850.39" height="708.66"/>
		</defs>
		<clipPath id="SVGID_38_">
			<use xlink:href="#SVGID_37_"  style="overflow:visible;"/>
		</clipPath>
		<path class="st79" d="M179.04,51.71h-8.06c-0.13,0-0.24-0.11-0.24-0.24c0-0.13,0.11-0.24,0.24-0.24h8.06
			c0.13,0,0.24,0.11,0.24,0.24C179.28,51.6,179.18,51.71,179.04,51.71"/>
	</g>
	<rect x="169.47" y="22.56" class="st80" width="3.09" height="5.9"/>
	<rect x="172.56" y="22.56" class="st81" width="3.66" height="5.9"/>
	<g>
		<defs>
			<rect id="SVGID_39_" x="-22" y="-589" width="850.39" height="708.66"/>
		</defs>
		<clipPath id="SVGID_40_">
			<use xlink:href="#SVGID_39_"  style="overflow:visible;"/>
		</clipPath>
		<path class="st82" d="M171.37,50.14c-0.19,0.1-0.38,0.21-0.56,0.29c-0.18,0.08-0.38,0.12-0.58,0.11c-0.2,0-0.4-0.07-0.53-0.21
			c-0.14-0.14-0.21-0.34-0.19-0.54c0.04-0.41,0.34-0.75,0.67-0.96c0.17-0.11,0.35-0.19,0.53-0.21c0.09-0.01,0.18-0.01,0.25,0
			c0.1,0.02,0.16,0.04,0.24,0.08c0.29,0.15,0.51,0.52,0.6,0.88c0.03,0.1,0.04,0.2,0.04,0.3L171.37,50.14z M175.27,50.1
			c-0.04-0.02-0.09-0.02-0.13,0l-0.02,0.01c-0.23,0.11-0.56,0-0.68-0.2c-0.01-0.03-0.04-0.05-0.06-0.07
			c-0.1-0.08-0.25-0.06-0.32,0.04l-0.02,0.03c-0.05,0.07-0.16,0.12-0.28,0.11c-0.12-0.01-0.22-0.06-0.26-0.13
			c-0.01-0.01-0.02-0.03-0.03-0.04c-0.1-0.11-0.27-0.11-0.38-0.01c-0.05,0.05-0.1,0.11-0.15,0.15c-0.01-0.11-0.03-0.22-0.06-0.32
			l0-0.01c0-0.01-0.01-0.03-0.02-0.04c-0.06-0.12-0.21-0.16-0.33-0.1l-0.29,0.16c0-0.06,0-0.12-0.01-0.18
			c-0.04-0.24-0.12-0.46-0.25-0.68c-0.12-0.21-0.3-0.41-0.55-0.53c-0.12-0.06-0.26-0.1-0.38-0.11c-0.15-0.01-0.27,0.01-0.4,0.04
			c-0.24,0.07-0.45,0.2-0.62,0.36c-0.35,0.31-0.6,0.73-0.65,1.19c-0.01,0.23,0.06,0.48,0.22,0.66c0.17,0.19,0.4,0.28,0.63,0.32
			c0.23,0.04,0.47,0.02,0.7-0.04c0.23-0.07,0.42-0.14,0.63-0.23c0.09-0.04,0.18-0.08,0.27-0.12c-0.02,0.14-0.03,0.28-0.06,0.42
			c-0.08,0.39-0.17,0.78-0.28,1.16l-0.07-0.1c-0.01-0.01-0.02-0.01-0.03-0.01c-0.01,0.01-0.02,0.02-0.01,0.03l0.1,0.21
			c0,0.01,0.01,0.02,0.02,0.02c0.02,0.01,0.05,0,0.06-0.02l0-0.01c0.2-0.39,0.37-0.8,0.49-1.22c0.07-0.21,0.12-0.43,0.16-0.65
			c0,0,0-0.01,0-0.01c0.08-0.03,0.15-0.07,0.23-0.1c0,0.07,0,0.13-0.01,0.19c-0.02,0.14,0.07,0.27,0.2,0.29l0.01,0
			c0.07,0.01,0.14,0.03,0.24,0.02c0.09,0,0.23-0.04,0.31-0.1c0.04-0.04,0.08-0.07,0.11-0.1c0.15,0.09,0.31,0.14,0.47,0.14
			c0.17,0,0.36-0.06,0.51-0.17c0.29,0.2,0.66,0.24,0.98,0.09c0.65,0.14,1.33,0.07,1.89-0.23c0.01,0,0.02-0.02,0.01-0.03
			c0-0.01-0.02-0.02-0.03-0.02C176.47,50.36,175.83,50.32,175.27,50.1"/>
		<path class="st82" d="M176.67,48.82c-0.29,0.06-0.61-0.03-0.36-0.25c0.2-0.2,0.48-0.37,0.7-0.32c0.2,0.05,0.25,0.22,0.27,0.42
			C177.08,48.74,176.87,48.8,176.67,48.82 M179.78,48.43c-0.14-0.21-0.39-0.27-0.55-0.28c-0.18-0.01-0.34,0.03-0.47,0.06
			c-0.14,0.03-0.28,0.07-0.42,0.12c-0.19,0.06-0.39,0.13-0.59,0.2c-0.04-0.13-0.09-0.26-0.21-0.38c-0.07-0.07-0.15-0.13-0.24-0.16
			c-0.01-0.01-0.06-0.02-0.07-0.02l-0.06-0.01c-0.06-0.01-0.11-0.01-0.15-0.01c-0.38,0.05-0.59,0.29-0.82,0.49
			c-0.06,0.06-0.13,0.12-0.15,0.23c0,0.02-0.01,0.02-0.01,0.05v0.03c0,0.04,0.01,0.07,0.03,0.09c0.02,0.05,0.07,0.09,0.1,0.12
			c0.16,0.12,0.35,0.13,0.49,0.16c0.21,0.02,0.42,0.02,0.62,0c0,0.08-0.01,0.15-0.02,0.23c-0.04,0.44-0.1,0.8-0.14,1.06
			c-0.05,0.26-0.07,0.42-0.07,0.42c0,0.01,0,0.02,0.01,0.03c0.01,0.01,0.03,0.01,0.04-0.01c0,0,0.1-0.12,0.24-0.36
			c0.14-0.24,0.3-0.61,0.39-1.08c0.02-0.11,0.04-0.24,0.05-0.37c0.24-0.05,0.48-0.11,0.7-0.16c0.26-0.06,0.56-0.14,0.72-0.15
			c0.09,0,0.11,0.02,0.12,0.01c0.02,0.01,0.04,0.06,0.04,0.14c-0.01,0.17-0.07,0.4-0.1,0.57c-0.04,0.18-0.09,0.33-0.12,0.46
			c-0.07,0.26-0.11,0.41-0.11,0.41c0,0.01,0,0.02,0.01,0.03c0.01,0.01,0.03,0.01,0.04,0c0,0,0.11-0.11,0.26-0.34
			c0.08-0.11,0.16-0.26,0.25-0.43c0.09-0.18,0.18-0.34,0.26-0.62C179.89,48.84,179.91,48.63,179.78,48.43"/>
	</g>
	<g>
		<path class="st64" d="M175.5,69.12c-0.78,0-1.51-0.29-2.05-0.69l0.32-0.61c0.41,0.34,1.13,0.65,1.77,0.65
			c0.86,0,1.4-0.49,1.4-1.26c0-1.77-3.35-1.08-3.35-3.34c0-0.92,0.76-1.7,2.14-1.7c0.84,0,1.5,0.24,1.92,0.49l-0.27,0.62
			c-0.29-0.18-0.93-0.43-1.64-0.43c-0.95,0-1.36,0.49-1.36,1.03c0,1.57,3.36,1.01,3.36,3.3C177.74,68.24,176.9,69.12,175.5,69.12z"
			/>
		<path class="st64" d="M182.07,69.02l-0.11-0.56c-0.24,0.27-0.78,0.66-1.52,0.66c-1.09,0-1.69-0.65-1.69-1.99v-3.01h0.76v2.96
			c0,1.01,0.32,1.43,1.11,1.43c0.47,0,0.9-0.22,1.21-0.48v-3.91h0.77v4.9H182.07z"/>
		<path class="st64" d="M184.54,64.69c0.33-0.36,0.9-0.66,1.46-0.66c1.25,0,1.9,0.89,1.9,2.54c0,1.73-0.86,2.56-2.04,2.56
			c-0.63,0-1.07-0.27-1.42-0.63l-0.16,0.53h-0.42v-6.9h0.76v1.9L184.54,64.69z M184.62,67.99c0.31,0.32,0.75,0.56,1.19,0.56
			c0.86,0,1.32-0.58,1.32-1.99c0-1.29-0.38-1.96-1.27-1.96c-0.47,0-0.95,0.25-1.24,0.55V67.99z"/>
		<path class="st64" d="M189.62,65.33c0,1.05,2.43,0.68,2.43,2.34c0,0.79-0.61,1.46-1.7,1.46c-0.59,0-1.14-0.21-1.48-0.42l0.22-0.56
			c0.24,0.19,0.77,0.41,1.25,0.41c0.6,0,0.97-0.33,0.97-0.84c0-1.18-2.4-0.74-2.4-2.4c0-0.66,0.5-1.29,1.62-1.29
			c0.52,0,1.07,0.1,1.47,0.32l-0.18,0.56c-0.38-0.2-0.78-0.3-1.28-0.3C189.92,64.61,189.62,64.88,189.62,65.33z"/>
		<path class="st64" d="M193.56,69.02v-4.29l-0.54-0.11v-0.5h1.28v4.9H193.56z M193.49,62.2h0.81V63h-0.81V62.2z"/>
		<path class="st64" d="M198.86,68.43c-0.28,0.37-0.83,0.69-1.41,0.69c-1.16,0-1.97-0.86-1.97-2.56c0-1.49,0.74-2.54,2.05-2.54
			c0.61,0,1.03,0.2,1.31,0.42c-0.03-0.26-0.04-0.51-0.04-0.8v-1.52h0.76v6.9h-0.57L198.86,68.43z M198.8,64.96
			c-0.23-0.16-0.64-0.35-1.19-0.35c-0.92,0-1.36,0.72-1.36,1.96c0,1.21,0.39,1.99,1.31,1.99c0.44,0,0.84-0.19,1.24-0.62V64.96z"/>
		<path class="st64" d="M201.27,69.02v-4.29l-0.54-0.11v-0.5h1.28v4.9H201.27z M201.2,62.2h0.81V63h-0.81V62.2z"/>
		<path class="st64" d="M207.37,66.56c0,1.65-0.8,2.56-2.11,2.56c-1.33,0-2.09-0.89-2.09-2.56c0-1.44,0.68-2.54,2.09-2.54
			C206.62,64.03,207.37,65.11,207.37,66.56z M206.59,66.56c0-1.28-0.43-1.97-1.33-1.97c-0.92,0-1.32,0.72-1.32,1.97
			c0,1.2,0.35,1.99,1.32,1.99C206.21,68.55,206.59,67.87,206.59,66.56z"/>
	</g>
	<g>
		<path class="st64" d="M169.1,78.21v-3.04h-3.07v3.04h-0.78v-6.75h0.78v3h3.07v-3h0.8v6.75H169.1z"/>
		<path class="st64" d="M174.28,78.21l-0.13-0.63c-0.29,0.37-0.82,0.73-1.51,0.73c-1,0-1.58-0.67-1.58-1.5c0-0.85,0.62-1.4,1.73-1.4
			h1.27v-0.39c0-0.85-0.37-1.21-1.11-1.21c-0.62,0-1.12,0.16-1.48,0.32l-0.2-0.55c0.39-0.17,0.97-0.37,1.78-0.37
			c1.16,0,1.75,0.6,1.75,1.77v3.23H174.28z M174.06,75.94h-1.15c-0.83,0-1.11,0.36-1.11,0.85c0,0.59,0.32,0.98,1.03,0.98
			c0.48,0,0.94-0.28,1.23-0.61V75.94z"/>
		<path class="st64" d="M176.78,73.88c0.33-0.36,0.9-0.66,1.46-0.66c1.25,0,1.9,0.89,1.9,2.54c0,1.73-0.86,2.56-2.04,2.56
			c-0.63,0-1.07-0.27-1.42-0.63l-0.16,0.53h-0.42v-6.9h0.76v1.9L176.78,73.88z M176.86,77.18c0.31,0.32,0.75,0.56,1.19,0.56
			c0.86,0,1.32-0.58,1.32-1.99c0-1.29-0.38-1.96-1.27-1.96c-0.47,0-0.95,0.25-1.24,0.55V77.18z"/>
		<path class="st64" d="M181.69,78.21v-4.29l-0.54-0.11v-0.5h1.28v4.9H181.69z M181.62,71.39h0.81v0.8h-0.81V71.39z"/>
		<path class="st64" d="M185.41,78.31c-0.69,0-1.26-0.35-1.26-1.5v-2.95h-0.74v-0.55h0.74v-0.89l0.76-0.24v1.13h1.43v0.55h-1.43
			v3.04c0,0.52,0.19,0.77,0.65,0.77c0.26,0,0.62-0.13,0.78-0.21l0.15,0.56C186.28,78.15,185.81,78.31,185.41,78.31z"/>
		<path class="st64" d="M190.36,78.21l-0.13-0.63c-0.29,0.37-0.82,0.73-1.51,0.73c-1,0-1.58-0.67-1.58-1.5c0-0.85,0.62-1.4,1.73-1.4
			h1.27v-0.39c0-0.85-0.37-1.21-1.11-1.21c-0.62,0-1.12,0.16-1.48,0.32l-0.2-0.55c0.39-0.17,0.97-0.37,1.78-0.37
			c1.16,0,1.75,0.6,1.75,1.77v3.23H190.36z M190.14,75.94h-1.15c-0.83,0-1.11,0.36-1.11,0.85c0,0.59,0.32,0.98,1.03,0.98
			c0.48,0,0.94-0.28,1.23-0.61V75.94z"/>
		<path class="st64" d="M195.8,77.88c-0.3,0.17-0.92,0.43-1.63,0.43c-1.24,0-2.14-0.73-2.14-2.55c0-1.66,0.91-2.55,2.14-2.55
			c0.56,0,1.16,0.12,1.6,0.39l-0.22,0.54c-0.38-0.22-0.84-0.32-1.34-0.32c-0.88,0-1.42,0.7-1.42,1.94c0,1.38,0.54,1.96,1.42,1.96
			c0.57,0,1.06-0.2,1.41-0.41L195.8,77.88z"/>
		<path class="st64" d="M197.19,78.21v-4.29l-0.54-0.11v-0.5h1.28v4.9H197.19z M197.12,71.39h0.81v0.8h-0.81V71.39z"/>
		<path class="st64" d="M203.29,75.75c0,1.65-0.8,2.56-2.11,2.56c-1.33,0-2.09-0.89-2.09-2.56c0-1.44,0.68-2.54,2.09-2.54
			C202.54,73.22,203.29,74.3,203.29,75.75z M202.51,75.75c0-1.28-0.43-1.97-1.33-1.97c-0.92,0-1.32,0.72-1.32,1.97
			c0,1.2,0.35,1.99,1.32,1.99C202.13,77.74,202.51,77.06,202.51,75.75z"/>
		<path class="st64" d="M207.52,78.21v-2.96c0-0.93-0.29-1.44-1.12-1.44c-0.51,0-0.9,0.29-1.2,0.56v3.84h-0.76v-4.9h0.51l0.15,0.58
			c0.28-0.29,0.8-0.68,1.54-0.68c1.15,0,1.66,0.69,1.66,1.91v3.09H207.52z"/>
		<path class="st64" d="M212.55,78.21l-0.13-0.63c-0.29,0.37-0.82,0.73-1.51,0.73c-1,0-1.58-0.67-1.58-1.5c0-0.85,0.62-1.4,1.73-1.4
			h1.27v-0.39c0-0.85-0.37-1.21-1.11-1.21c-0.62,0-1.12,0.16-1.48,0.32l-0.2-0.55c0.39-0.17,0.97-0.37,1.78-0.37
			c1.16,0,1.75,0.6,1.75,1.77v3.23H212.55z M212.33,75.94h-1.15c-0.83,0-1.11,0.36-1.11,0.85c0,0.59,0.32,0.98,1.03,0.98
			c0.48,0,0.94-0.28,1.23-0.61V75.94z"/>
		<path class="st64" d="M214.41,76.86v-5.55h0.75v5.83c0,0.42,0.19,0.59,0.73,0.59h0.16v0.52c0,0-0.24,0.06-0.48,0.06
			C214.64,78.31,214.41,77.78,214.41,76.86z"/>
	</g>
	<rect x="130.49" y="65.98" class="st64" width="3.12" height="9.23"/>
	<rect x="127.43" y="69.03" class="st64" width="9.23" height="3.12"/>
	<rect x="248.76" y="65.98" class="st64" width="3.12" height="9.23"/>
	<rect x="245.7" y="69.03" class="st64" width="9.23" height="3.12"/>
	<g>
		<defs>
			<rect id="SVGID_41_" x="-22" y="-589" width="850.39" height="708.66"/>
		</defs>
		<clipPath id="SVGID_42_">
			<use xlink:href="#SVGID_41_"  style="overflow:visible;"/>
		</clipPath>
		<path class="st83" d="M447.45-398.16c0.14,0.15,0.32,0.23,0.54,0.23c0.51,0,0.76-0.37,0.76-1.11v-6.33c0-0.27-0.06-0.47-0.18-0.62
			c-0.12-0.15-0.27-0.23-0.47-0.23c-0.17,0-0.29,0.03-0.35,0.1c-0.06,0.07-0.2,0.24-0.4,0.53c-0.21,0.29-0.44,0.55-0.71,0.78
			s-0.62,0.45-1.07,0.66c-0.3,0.14-0.51,0.25-0.62,0.34c-0.12,0.09-0.18,0.23-0.18,0.41c0,0.16,0.06,0.31,0.18,0.43
			c0.12,0.12,0.26,0.18,0.41,0.18c0.32,0,0.95-0.36,1.89-1.08v5.03C447.25-398.54,447.31-398.31,447.45-398.16"/>
	</g>
</g>
<g id="Capa_3" class="st0">
	<g class="st5">
		<defs>
			<rect id="SVGID_43_" x="-447.2" y="-72.7" width="850.39" height="708.66"/>
		</defs>
		<clipPath id="SVGID_44_">
			<use xlink:href="#SVGID_43_"  style="overflow:visible;"/>
		</clipPath>
		<path class="st84" d="M23.4,172.48c0.18,0.1,0.32,0.24,0.42,0.41c0.1,0.18,0.15,0.37,0.15,0.59c0,0.16-0.03,0.31-0.08,0.45
			c-0.06,0.14-0.14,0.25-0.24,0.35c-0.1,0.1-0.23,0.18-0.37,0.23c-0.14,0.06-0.3,0.08-0.48,0.08c-0.35,0-0.63-0.11-0.85-0.32
			c-0.22-0.21-0.33-0.47-0.33-0.79c0-0.34,0.11-0.62,0.32-0.84c0.21-0.22,0.5-0.33,0.85-0.33C23.01,172.33,23.22,172.38,23.4,172.48
			 M24,177.87c-0.12,0.22-0.28,0.4-0.49,0.52c-0.21,0.12-0.44,0.18-0.7,0.18c-0.26,0-0.49-0.06-0.7-0.18
			c-0.21-0.12-0.37-0.29-0.49-0.51c-0.12-0.22-0.18-0.48-0.18-0.77c0-0.46,0.13-0.81,0.39-1.06c0.26-0.25,0.57-0.38,0.95-0.38
			c0.27,0,0.51,0.06,0.73,0.17c0.22,0.11,0.38,0.28,0.5,0.5c0.12,0.22,0.18,0.47,0.18,0.76C24.18,177.39,24.12,177.65,24,177.87
			 M21.32,175.09c-0.95,0.37-1.42,1.06-1.42,2.06c0,0.47,0.11,0.89,0.34,1.27c0.22,0.38,0.55,0.67,0.99,0.89
			c0.44,0.22,0.97,0.32,1.59,0.32c0.6,0,1.11-0.11,1.55-0.32c0.44-0.22,0.77-0.51,1-0.9c0.23-0.38,0.34-0.81,0.34-1.28
			c0-0.32-0.05-0.61-0.16-0.87c-0.11-0.26-0.26-0.49-0.47-0.69c-0.21-0.2-0.47-0.36-0.79-0.48c0.37-0.18,0.65-0.42,0.84-0.7
			c0.19-0.29,0.28-0.61,0.28-0.98c0-0.29-0.05-0.56-0.16-0.81c-0.11-0.25-0.27-0.48-0.5-0.69c-0.22-0.2-0.5-0.36-0.84-0.48
			c-0.34-0.12-0.72-0.17-1.17-0.17c-0.53,0-0.98,0.1-1.38,0.3c-0.39,0.2-0.69,0.46-0.89,0.79c-0.2,0.33-0.3,0.68-0.3,1.05
			C20.17,174.17,20.56,174.74,21.32,175.09 M16.05,179.42c0.14,0.15,0.32,0.23,0.55,0.23c0.51,0,0.77-0.37,0.77-1.12v-6.39
			c0-0.27-0.06-0.48-0.18-0.63c-0.12-0.15-0.28-0.23-0.47-0.23c-0.18,0-0.29,0.03-0.36,0.1c-0.06,0.07-0.2,0.25-0.41,0.54
			c-0.21,0.29-0.45,0.55-0.72,0.79c-0.27,0.23-0.63,0.46-1.08,0.67c-0.3,0.14-0.51,0.26-0.63,0.35c-0.12,0.09-0.18,0.23-0.18,0.42
			c0,0.16,0.06,0.31,0.18,0.43c0.12,0.13,0.26,0.19,0.42,0.19c0.33,0,0.96-0.36,1.91-1.09v5.08
			C15.84,179.05,15.91,179.27,16.05,179.42"/>
		<path class="st85" d="M10.47,190.06c0,0-2.84,0-2.84,2.84v11.02c0,0,0,2.83,2.84,2.83h21.09c0,0,2.83,0,2.83-2.83V192.9
			c0,0,0-2.84-2.83-2.84H10.47z"/>
		<path class="st85" d="M9.88,206.07h12.2c0,0,0.58-1.87-1.1-2.8c-1.68-0.93-3.65-1.44-3.43-2.32c0.22-0.88,1.46-1.61,1.32-3.44
			c-0.15-1.83,0.39-4.1-2.84-4.1c-3.23,0-2.64,2.92-2.72,3.51c-0.07,0.58,0.11,2.52,0.73,3.11s0.7,1.02,0.18,1.46
			c-0.99,0.84-3.58,1.5-4.02,2.6C9.77,205.19,9.88,206.07,9.88,206.07z"/>
	</g>
	<g class="st5">
		<defs>
			<rect id="SVGID_45_" x="-447.2" y="-72.7" width="850.39" height="708.66"/>
		</defs>
		<clipPath id="SVGID_46_">
			<use xlink:href="#SVGID_45_"  style="overflow:visible;"/>
		</clipPath>
		<path class="st86" d="M34.31,313.88c0-0.84-0.3-1.61-0.8-2.24v1.14c0,0.67-0.29,1.26-0.74,1.68c-1-4.29-5.22-7.51-10.29-7.51
			c-1.23,0-2.41,0.2-3.51,0.55c-0.26-0.95-1.12-1.64-2.15-1.64h-0.61v2.97c-2.02,1.35-3.49,3.34-4.02,5.63h-1.55
			c-0.41,0-0.75,0.33-0.75,0.75v4.72c0,0.41,0.33,0.75,0.75,0.75h1.98c0.49,1.35,1.3,2.51,2.55,3.39v3.02
			c0,0.41,0.34,0.75,0.75,0.75h3.43c0.41,0,0.75-0.33,0.75-0.75v-1.35c0.73,0.08,1.51,0.13,2.38,0.13c1.44-0.01,2.68-0.14,3.77-0.36
			v0.92c0,0.78,0.34,1.41,0.75,1.41h3.44c0.41,0,0.75-0.63,0.75-1.41v-3.57c1.34-1.63,1.78-3.79,1.81-6.18
			C33.8,315.96,34.31,314.97,34.31,313.88z"/>
		<path class="st87" d="M16.48,314.7c0,0.64-0.52,1.16-1.16,1.16c-0.64,0-1.16-0.52-1.16-1.16c0-0.64,0.52-1.16,1.16-1.16
			C15.97,313.54,16.48,314.06,16.48,314.7"/>
		<path class="st86" d="M30.04,303.28c0,1.42-1.15,2.57-2.57,2.57c-1.42,0-2.57-1.15-2.57-2.57c0-1.42,1.15-2.57,2.57-2.57
			C28.89,300.71,30.04,301.87,30.04,303.28z"/>
		<path class="st86" d="M21.47,310.02c0,0,2.79-0.73,5,0.31c2.07,0.98,2.9,2.58,2.9,2.58"/>
		<path class="st88" d="M17.31,254.14l-1.81-0.39c0,0-1.02-0.22-1.24,0.81l-4.31,20.28c0,0-0.22,1.03,0.81,1.25l17.11,3.64
			c0,0,1.02,0.22,1.24-0.81l4.31-20.28c0,0,0.22-1.03-0.81-1.25l-1.78-0.38"/>
		<path class="st88" d="M24.93,251.44c-2.34-0.49-2.66,0.34-2.66,0.34l-0.6,0.83l-3.02-0.64c0,0-0.72-0.15-0.87,0.54l-0.5,2.34
			c0,0-0.15,0.69,0.57,0.84l11.82,2.5c0,0,0.72,0.15,0.86-0.54l0.5-2.34c0,0,0.15-0.69-0.57-0.84l-2.93-0.62l-0.29-1.02
			C27.24,252.83,27.27,251.93,24.93,251.44z"/>
	</g>
	<rect x="6.46" y="36.98" class="st1" width="367.92" height="46.15"/>
	<rect x="6.46" y="36.98" class="st89" width="367.92" height="46.15"/>
	<g class="st5">
		<defs>
			<rect id="SVGID_47_" x="-447.2" y="-72.7" width="850.39" height="708.66"/>
		</defs>
		<clipPath id="SVGID_48_">
			<use xlink:href="#SVGID_47_"  style="overflow:visible;"/>
		</clipPath>
		<path class="st90" d="M63.16,30.53c0-1.52-0.54-2.92-1.46-4.08v2.07c0,1.21-0.52,2.29-1.35,3.05c-1.83-7.8-9.55-13.65-18.79-13.65
			c-2.25,0-4.4,0.36-6.4,1c-0.48-1.72-2.05-2.99-3.94-2.99h-1.11v5.4c-3.69,2.46-6.37,6.07-7.34,10.25h-2.84
			c-0.76,0-1.37,0.61-1.37,1.36v8.59c0,0.75,0.61,1.36,1.37,1.36h3.63c0.9,2.45,2.38,4.56,4.66,6.16v5.49
			c0,0.75,0.61,1.36,1.37,1.36h6.28c0.76,0,1.37-0.61,1.37-1.36v-2.46c1.34,0.15,2.76,0.24,4.34,0.23c2.64-0.01,4.9-0.25,6.88-0.65
			v1.68c0,1.42,0.61,2.56,1.37,2.56h6.28c0.76,0,1.37-1.15,1.37-2.56v-6.49c2.45-2.96,3.25-6.89,3.3-11.25
			C62.24,34.31,63.16,32.52,63.16,30.53"/>
		<path class="st91" d="M30.59,32.11c0,1.01-0.83,1.83-1.85,1.83s-1.85-0.82-1.85-1.83c0-1.01,0.83-1.83,1.85-1.83
			S30.59,31.1,30.59,32.11"/>
		<path class="st91" d="M53.7,28.1c-0.3,0-0.6-0.15-0.78-0.42c-2.39-3.62-7.59-5.66-11.84-4.64c-0.5,0.12-1.01-0.19-1.13-0.69
			c-0.12-0.5,0.19-1,0.69-1.12c4.96-1.18,11.04,1.2,13.84,5.43c0.28,0.43,0.16,1-0.27,1.28C54.05,28.05,53.87,28.1,53.7,28.1"/>
		<path class="st92" d="M38.15,46.82c-6.64,0.41-13.61-1.81-13.61-1.81c0.89,1.56,2.08,2.93,3.67,4.05v5.49
			c0,0.75,0.61,1.36,1.37,1.36h6.28c0.76,0,1.37-0.61,1.37-1.36v-2.46c1.34,0.15,2.76,0.24,4.34,0.23c2.64-0.01,4.9-0.25,6.88-0.65
			v1.68c0,1.42,0.61,2.56,1.37,2.56h6.28c0.76,0,1.37-1.15,1.37-2.56v-6.5c2.39-2.88,3.2-6.69,3.29-10.92h-0.09
			C56.68,42.01,47.73,46.23,38.15,46.82"/>
		<path class="st93" d="M47.69,9.96c0,2.78-2.26,5.02-5.06,5.02c-2.79,0-5.06-2.25-5.06-5.02c0-2.77,2.26-5.02,5.06-5.02
			C45.43,4.94,47.69,7.19,47.69,9.96"/>
		<path class="st93" d="M51.81,26.33c1.34-0.9,2.22-2.43,2.22-4.16c0-2.78-2.27-5.03-5.07-5.03s-5.07,2.25-5.07,5.03
			c0,0.22,0.02,0.43,0.05,0.64C46.86,22.97,49.82,24.27,51.81,26.33"/>
		<path class="st93" d="M51.81,26.33c1.34-0.9,2.22-2.43,2.22-4.16c0-2.78-2.27-5.03-5.07-5.03s-5.07,2.25-5.07,5.03
			c0,0.22,0.02,0.43,0.05,0.64C46.86,22.97,49.82,24.27,51.81,26.33"/>
		<path class="st94" d="M50.84,25.45c1.16-0.64,1.95-1.88,1.95-3.29c0-2.08-1.7-3.77-3.79-3.77c-2.1,0-3.79,1.69-3.79,3.77
			c0,0.27,0.03,0.54,0.09,0.8C47.3,23.31,49.26,24.18,50.84,25.45"/>
		<path class="st94" d="M46.41,9.96c0,2.07-1.69,3.75-3.77,3.75c-2.08,0-3.77-1.68-3.77-3.75c0-2.07,1.69-3.74,3.77-3.74
			C44.72,6.22,46.41,7.9,46.41,9.96"/>
		<path class="st93" d="M44.04,9.96c0-0.59-0.38-1.1-0.9-1.3V8.24c0-0.27-0.23-0.5-0.5-0.5c-0.28,0-0.5,0.22-0.5,0.5v0.42
			c-0.53,0.2-0.9,0.7-0.9,1.3c0,0.59,0.38,1.1,0.9,1.3v0.43c0,0.28,0.22,0.5,0.5,0.5c0.28,0,0.5-0.22,0.5-0.5v-0.43
			C43.67,11.06,44.04,10.56,44.04,9.96"/>
		<path class="st93" d="M48.6,23.6v0.43l0,0.01c0.26,0.13,0.51,0.26,0.76,0.4c0.14-0.09,0.24-0.23,0.24-0.41V23.6
			c0.52-0.2,0.9-0.7,0.9-1.3c0-0.59-0.38-1.1-0.9-1.3v-0.42c0-0.27-0.22-0.5-0.5-0.5c-0.28,0-0.5,0.22-0.5,0.5V21
			c-0.53,0.2-0.9,0.7-0.9,1.3C47.7,22.89,48.07,23.39,48.6,23.6"/>
	</g>
	<g class="st5">
		<path class="st95" d="M28.04,68.42h-0.75l1.85-6.75h1.65l1.71,6.75h-0.84l-0.41-1.72h-2.77L28.04,68.42z M29.64,62.34l-1,3.71
			h2.46l-0.89-3.71H29.64z"/>
		<path class="st95" d="M33.34,68.42v-6.9h0.76v1.97c0,0.2-0.03,0.51-0.07,0.62c0.27-0.29,0.76-0.69,1.48-0.69
			c1.2,0,1.69,0.67,1.69,1.91v3.09h-0.78v-2.96c0-0.91-0.36-1.44-1.12-1.44c-0.51,0-0.9,0.29-1.2,0.56v3.84H33.34z"/>
		<path class="st95" d="M42.41,65.96c0,1.65-0.8,2.56-2.11,2.56c-1.33,0-2.09-0.89-2.09-2.56c0-1.44,0.68-2.54,2.09-2.54
			C41.66,63.42,42.41,64.5,42.41,65.96z M41.63,65.96c0-1.28-0.43-1.97-1.33-1.97c-0.92,0-1.32,0.72-1.32,1.97
			c0,1.2,0.35,1.99,1.32,1.99C41.25,67.95,41.63,67.27,41.63,65.96z"/>
		<path class="st95" d="M46.05,64.18c-0.14-0.05-0.36-0.09-0.63-0.09c-0.47,0-0.85,0.27-1.1,0.53v3.8h-0.76v-4.9h0.51l0.14,0.62
			c0.21-0.28,0.64-0.69,1.27-0.69c0.36,0,0.58,0.07,0.62,0.08L46.05,64.18z"/>
		<path class="st95" d="M49.44,64.18c-0.14-0.05-0.36-0.09-0.63-0.09c-0.47,0-0.85,0.27-1.1,0.53v3.8h-0.76v-4.9h0.51l0.14,0.62
			c0.21-0.28,0.64-0.69,1.27-0.69c0.36,0,0.58,0.07,0.62,0.08L49.44,64.18z"/>
		<path class="st95" d="M54.13,65.96c0,1.65-0.8,2.56-2.11,2.56c-1.33,0-2.09-0.89-2.09-2.56c0-1.44,0.68-2.54,2.09-2.54
			C53.38,63.42,54.13,64.5,54.13,65.96z M53.35,65.96c0-1.28-0.43-1.97-1.33-1.97c-0.92,0-1.32,0.72-1.32,1.97
			c0,1.2,0.35,1.99,1.32,1.99C52.97,67.95,53.35,67.27,53.35,65.96z"/>
	</g>
	<rect x="304.95" y="51.98" class="st96" width="17.31" height="3.92"/>
	<rect x="304.95" y="51.98" class="st97" width="17.31" height="1.11"/>
	<rect x="304.95" y="48.06" class="st96" width="17.31" height="3.92"/>
	<rect x="304.95" y="48.06" class="st97" width="17.31" height="1.11"/>
	<rect x="304.95" y="44.14" class="st96" width="17.31" height="3.92"/>
	<rect x="304.95" y="44.14" class="st97" width="17.31" height="1.11"/>
	<rect x="304.95" y="40.21" class="st96" width="17.31" height="3.92"/>
	<rect x="304.95" y="40.21" class="st97" width="17.31" height="1.11"/>
	<rect x="304.95" y="36.29" class="st96" width="17.31" height="3.92"/>
	<rect x="304.95" y="36.29" class="st97" width="17.31" height="1.11"/>
	<rect x="304.95" y="32.36" class="st96" width="17.31" height="3.92"/>
	<rect x="304.95" y="32.36" class="st97" width="17.31" height="1.11"/>
	<rect x="304.95" y="28.44" class="st96" width="17.31" height="3.92"/>
	<rect x="304.95" y="28.44" class="st97" width="17.31" height="1.11"/>
	<rect x="304.95" y="24.51" class="st96" width="17.31" height="3.92"/>
	<rect x="304.95" y="24.51" class="st97" width="17.31" height="1.11"/>
	<rect x="323.73" y="51.98" class="st96" width="17.31" height="3.92"/>
	<rect x="323.73" y="51.98" class="st97" width="17.31" height="1.11"/>
	<rect x="323.73" y="48.06" class="st96" width="17.31" height="3.92"/>
	<rect x="323.73" y="48.06" class="st97" width="17.31" height="1.11"/>
	<rect x="323.73" y="44.14" class="st96" width="17.31" height="3.92"/>
	<rect x="323.73" y="44.14" class="st97" width="17.31" height="1.11"/>
	<rect x="323.73" y="40.21" class="st96" width="17.31" height="3.92"/>
	<rect x="323.73" y="40.21" class="st97" width="17.31" height="1.11"/>
	<g class="st5">
		<defs>
			<rect id="SVGID_49_" x="-447.2" y="-72.7" width="850.39" height="708.66"/>
		</defs>
		<clipPath id="SVGID_50_">
			<use xlink:href="#SVGID_49_"  style="overflow:visible;"/>
		</clipPath>
		<path class="st98" d="M299.31,55.57c1.94,1.26,5.74-1.16,8.49-5.41c2.75-4.24,3.4-8.7,1.46-9.96c-0.55-0.36-2.11-1.31-2.11-1.31
			c-1.98,0.47-5.27,3.1-7.25,6.16c-2.05,3.17-2.84,7.39-2.35,9.38C297.55,54.43,298.82,55.26,299.31,55.57"/>
		<path class="st99" d="M297.55,54.43c1.94,1.26,5.74-1.16,8.49-5.41c2.74-4.24,3.39-8.7,1.45-9.96c-1.94-1.26-5.74,1.17-8.49,5.41
			C296.26,48.73,295.61,53.18,297.55,54.43"/>
		<path class="st100" d="M298.82,52.48c1.45,0.94,4.28-0.87,6.33-4.03c2.04-3.16,2.53-6.49,1.08-7.43
			c-1.45-0.94-4.28,0.87-6.33,4.03C297.86,48.22,297.37,51.55,298.82,52.48"/>
		<path class="st99" d="M301.15,48.88c-0.42-0.27-0.4-1.07-0.03-1.95l-0.29-0.19c-0.19-0.13-0.13-0.57,0.15-0.99
			c0.27-0.42,0.65-0.66,0.84-0.54l0.29,0.19c0.67-0.7,1.38-1.04,1.8-0.77c0.42,0.27,0.4,1.06,0.02,1.95l0.29,0.19
			c0.2,0.13,0.13,0.57-0.14,0.98c-0.27,0.43-0.65,0.67-0.84,0.54l-0.3-0.19C302.28,48.81,301.56,49.15,301.15,48.88"/>
	</g>
	<g class="st5">
		<path class="st95" d="M279.32,68.42h-0.75l1.85-6.75h1.65l1.71,6.75h-0.84l-0.41-1.72h-2.77L279.32,68.42z M280.92,62.34l-1,3.71
			h2.46l-0.89-3.71H280.92z"/>
		<path class="st95" d="M285.39,68.75v1.57h-0.77v-6.8h0.59l0.12,0.58c0.34-0.38,0.86-0.68,1.43-0.68c1.25,0,1.87,0.89,1.87,2.54
			c0,1.73-0.86,2.56-2.03,2.56c-0.59,0-0.97-0.21-1.32-0.56C285.28,67.96,285.39,68.44,285.39,68.75z M285.39,67.42
			c0.3,0.31,0.71,0.53,1.16,0.53c0.89,0,1.31-0.58,1.31-1.99c0-1.29-0.37-1.95-1.26-1.95c-0.48,0-0.92,0.27-1.21,0.57V67.42z"/>
		<path class="st95" d="M293.81,65.96c0,1.65-0.8,2.56-2.11,2.56c-1.33,0-2.09-0.89-2.09-2.56c0-1.44,0.68-2.54,2.09-2.54
			C293.06,63.42,293.81,64.5,293.81,65.96z M293.04,65.96c0-1.28-0.43-1.97-1.33-1.97c-0.92,0-1.32,0.72-1.32,1.97
			c0,1.2,0.35,1.99,1.32,1.99C292.66,67.95,293.04,67.27,293.04,65.96z"/>
		<path class="st95" d="M297.46,64.18c-0.14-0.05-0.36-0.09-0.63-0.09c-0.47,0-0.85,0.27-1.1,0.53v3.8h-0.76v-4.9h0.51l0.14,0.62
			c0.21-0.28,0.64-0.69,1.27-0.69c0.36,0,0.58,0.07,0.62,0.08L297.46,64.18z"/>
		<path class="st95" d="M300.01,68.52c-0.69,0-1.26-0.35-1.26-1.5v-2.95h-0.74v-0.55h0.74v-0.89l0.76-0.24v1.13h1.43v0.55h-1.43
			v3.04c0,0.52,0.19,0.77,0.65,0.77c0.26,0,0.62-0.13,0.78-0.21l0.15,0.56C300.88,68.36,300.41,68.52,300.01,68.52z"/>
		<path class="st95" d="M302.44,66.19c0,1.21,0.62,1.74,1.55,1.74c0.63,0,1.19-0.29,1.52-0.49l0.19,0.54
			c-0.41,0.25-1.05,0.54-1.79,0.54c-1.34,0-2.23-0.89-2.23-2.58c0-1.55,0.76-2.52,2.1-2.52c1.38,0,1.96,1.11,1.96,2.34v0.43H302.44z
			 M303.75,64c-0.93,0-1.31,0.82-1.31,1.66H305C305,64.81,304.71,64,303.75,64z"/>
		<path class="st95" d="M307.46,64.72c0,1.05,2.43,0.68,2.43,2.34c0,0.79-0.61,1.46-1.7,1.46c-0.59,0-1.14-0.21-1.48-0.42l0.22-0.56
			c0.24,0.19,0.77,0.41,1.25,0.41c0.6,0,0.97-0.33,0.97-0.84c0-1.18-2.4-0.74-2.4-2.4c0-0.66,0.5-1.29,1.62-1.29
			c0.52,0,1.07,0.1,1.47,0.32l-0.18,0.56c-0.38-0.2-0.78-0.3-1.28-0.3C307.76,64,307.46,64.27,307.46,64.72z"/>
		<path class="st95" d="M316.23,68.42l-0.13-0.63c-0.29,0.37-0.82,0.73-1.51,0.73c-1,0-1.58-0.67-1.58-1.5c0-0.85,0.62-1.4,1.73-1.4
			h1.27v-0.39c0-0.85-0.37-1.21-1.11-1.21c-0.62,0-1.12,0.16-1.48,0.32l-0.2-0.55c0.39-0.17,0.97-0.37,1.78-0.37
			c1.16,0,1.75,0.6,1.75,1.77v3.23H316.23z M316.01,66.14h-1.15c-0.83,0-1.11,0.36-1.11,0.85c0,0.59,0.32,0.98,1.03,0.98
			c0.48,0,0.94-0.28,1.23-0.61V66.14z"/>
		<path class="st95" d="M321.28,67.83c-0.28,0.37-0.83,0.69-1.41,0.69c-1.16,0-1.97-0.86-1.97-2.56c0-1.49,0.74-2.54,2.05-2.54
			c0.61,0,1.03,0.2,1.31,0.42c-0.03-0.26-0.04-0.51-0.04-0.8v-1.52h0.76v6.9h-0.57L321.28,67.83z M321.22,64.35
			c-0.23-0.16-0.64-0.35-1.19-0.35c-0.92,0-1.36,0.72-1.36,1.96c0,1.21,0.39,1.99,1.31,1.99c0.44,0,0.84-0.19,1.24-0.62V64.35z"/>
		<path class="st95" d="M323.7,68.42v-4.29l-0.54-0.11v-0.5h1.28v4.9H323.7z M323.63,61.6h0.81v0.8h-0.81V61.6z"/>
		<path class="st95" d="M329.38,68.09c-0.3,0.17-0.92,0.43-1.63,0.43c-1.24,0-2.14-0.73-2.14-2.55c0-1.66,0.91-2.55,2.14-2.55
			c0.56,0,1.16,0.12,1.6,0.39l-0.22,0.54c-0.38-0.22-0.84-0.32-1.34-0.32c-0.88,0-1.42,0.7-1.42,1.94c0,1.38,0.54,1.96,1.42,1.96
			c0.57,0,1.06-0.2,1.41-0.41L329.38,68.09z"/>
		<path class="st95" d="M330.78,68.42v-4.29l-0.54-0.11v-0.5h1.28v4.9H330.78z M330.71,61.6h0.81v0.8h-0.81V61.6z"/>
		<path class="st95" d="M336.87,65.96c0,1.65-0.8,2.56-2.11,2.56c-1.33,0-2.09-0.89-2.09-2.56c0-1.44,0.68-2.54,2.09-2.54
			C336.12,63.42,336.87,64.5,336.87,65.96z M336.09,65.96c0-1.28-0.43-1.97-1.33-1.97c-0.92,0-1.32,0.72-1.32,1.97
			c0,1.2,0.35,1.99,1.32,1.99C335.71,67.95,336.09,67.27,336.09,65.96z"/>
		<path class="st95" d="M341.1,68.42v-2.96c0-0.93-0.29-1.44-1.12-1.44c-0.51,0-0.9,0.29-1.2,0.56v3.84h-0.76v-4.9h0.51l0.15,0.58
			c0.28-0.29,0.8-0.68,1.54-0.68c1.15,0,1.66,0.69,1.66,1.91v3.09H341.1z"/>
		<path class="st95" d="M346.13,68.42L346,67.79c-0.29,0.37-0.82,0.73-1.51,0.73c-1,0-1.58-0.67-1.58-1.5c0-0.85,0.62-1.4,1.73-1.4
			h1.27v-0.39c0-0.85-0.37-1.21-1.11-1.21c-0.62,0-1.12,0.16-1.48,0.32l-0.2-0.55c0.39-0.17,0.97-0.37,1.78-0.37
			c1.16,0,1.75,0.6,1.75,1.77v3.23H346.13z M345.91,66.14h-1.15c-0.83,0-1.11,0.36-1.11,0.85c0,0.59,0.32,0.98,1.03,0.98
			c0.48,0,0.94-0.28,1.23-0.61V66.14z"/>
		<path class="st95" d="M347.99,67.07v-5.55h0.75v5.83c0,0.42,0.19,0.59,0.73,0.59h0.16v0.52c0,0-0.24,0.06-0.48,0.06
			C348.23,68.52,347.99,67.99,347.99,67.07z"/>
		<path class="st95" d="M351.19,66.19c0,1.21,0.62,1.74,1.55,1.74c0.63,0,1.19-0.29,1.52-0.49l0.19,0.54
			c-0.41,0.25-1.05,0.54-1.79,0.54c-1.34,0-2.23-0.89-2.23-2.58c0-1.55,0.76-2.52,2.1-2.52c1.38,0,1.96,1.11,1.96,2.34v0.43H351.19z
			 M352.49,64c-0.93,0-1.31,0.82-1.31,1.66h2.56C353.74,64.81,353.45,64,352.49,64z"/>
		<path class="st95" d="M356.21,64.72c0,1.05,2.43,0.68,2.43,2.34c0,0.79-0.61,1.46-1.7,1.46c-0.59,0-1.14-0.21-1.48-0.42l0.22-0.56
			c0.24,0.19,0.77,0.41,1.25,0.41c0.6,0,0.97-0.33,0.97-0.84c0-1.18-2.4-0.74-2.4-2.4c0-0.66,0.5-1.29,1.62-1.29
			c0.52,0,1.07,0.1,1.47,0.32l-0.18,0.56c-0.38-0.2-0.78-0.3-1.28-0.3C356.51,64,356.21,64.27,356.21,64.72z"/>
	</g>
	<g class="st5">
		<path class="st95" d="M301.26,75.15c0,1.65-0.8,2.56-2.11,2.56c-1.33,0-2.09-0.89-2.09-2.56c0-1.44,0.68-2.54,2.09-2.54
			C300.51,72.61,301.26,73.69,301.26,75.15z M300.48,75.15c0-1.28-0.43-1.97-1.33-1.97c-0.92,0-1.32,0.72-1.32,1.97
			c0,1.2,0.35,1.99,1.32,1.99C300.1,77.14,300.48,76.46,300.48,75.15z"/>
		<path class="st95" d="M303.18,77.94v1.57h-0.77v-6.8H303l0.12,0.58c0.34-0.38,0.86-0.68,1.43-0.68c1.25,0,1.87,0.89,1.87,2.54
			c0,1.73-0.86,2.56-2.03,2.56c-0.59,0-0.97-0.21-1.32-0.56C303.07,77.15,303.18,77.63,303.18,77.94z M303.18,76.61
			c0.3,0.31,0.71,0.53,1.16,0.53c0.89,0,1.31-0.58,1.31-1.99c0-1.29-0.37-1.95-1.26-1.95c-0.48,0-0.92,0.27-1.21,0.57V76.61z"/>
		<path class="st95" d="M311.19,77.28c-0.3,0.17-0.92,0.43-1.63,0.43c-1.24,0-2.14-0.73-2.14-2.55c0-1.66,0.91-2.55,2.14-2.55
			c0.56,0,1.16,0.12,1.6,0.39l-0.22,0.54c-0.38-0.22-0.84-0.32-1.34-0.32c-0.88,0-1.42,0.7-1.42,1.94c0,1.38,0.54,1.96,1.42,1.96
			c0.57,0,1.06-0.2,1.41-0.41L311.19,77.28z"/>
		<path class="st95" d="M312.59,77.61v-4.29l-0.54-0.11v-0.5h1.28v4.9H312.59z M312.52,70.79h0.81v0.8h-0.81V70.79z"/>
		<path class="st95" d="M318.69,75.15c0,1.65-0.8,2.56-2.11,2.56c-1.33,0-2.09-0.89-2.09-2.56c0-1.44,0.68-2.54,2.09-2.54
			C317.94,72.61,318.69,73.69,318.69,75.15z M317.91,75.15c0-1.28-0.43-1.97-1.33-1.97c-0.92,0-1.32,0.72-1.32,1.97
			c0,1.2,0.35,1.99,1.32,1.99C317.53,77.14,317.91,76.46,317.91,75.15z"/>
		<path class="st95" d="M322.92,77.61v-2.96c0-0.93-0.29-1.44-1.12-1.44c-0.51,0-0.9,0.29-1.2,0.56v3.84h-0.76v-4.9h0.51l0.15,0.58
			c0.28-0.29,0.8-0.68,1.54-0.68c1.15,0,1.66,0.69,1.66,1.91v3.09H322.92z"/>
		<path class="st95" d="M327.94,77.61l-0.13-0.63c-0.29,0.37-0.82,0.73-1.51,0.73c-1,0-1.58-0.67-1.58-1.5c0-0.85,0.62-1.4,1.73-1.4
			h1.27v-0.39c0-0.85-0.37-1.21-1.11-1.21c-0.62,0-1.12,0.16-1.48,0.32l-0.2-0.55c0.39-0.17,0.97-0.37,1.78-0.37
			c1.16,0,1.75,0.6,1.75,1.77v3.23H327.94z M327.73,75.33h-1.15c-0.83,0-1.11,0.36-1.11,0.85c0,0.59,0.32,0.98,1.03,0.98
			c0.48,0,0.94-0.28,1.23-0.61V75.33z"/>
		<path class="st95" d="M329.81,76.26v-5.55h0.75v5.83c0,0.42,0.19,0.59,0.73,0.59h0.16v0.52c0,0-0.24,0.06-0.48,0.06
			C330.04,77.71,329.81,77.18,329.81,76.26z"/>
		<path class="st95" d="M333,75.38c0,1.21,0.62,1.74,1.55,1.74c0.63,0,1.19-0.29,1.52-0.49l0.19,0.54
			c-0.41,0.25-1.05,0.54-1.79,0.54c-1.34,0-2.23-0.89-2.23-2.58c0-1.55,0.76-2.52,2.1-2.52c1.38,0,1.96,1.11,1.96,2.34v0.43H333z
			 M334.31,73.19c-0.93,0-1.31,0.82-1.31,1.66h2.56C335.56,74,335.27,73.19,334.31,73.19z"/>
		<path class="st95" d="M338.02,73.91c0,1.05,2.43,0.68,2.43,2.34c0,0.79-0.61,1.46-1.7,1.46c-0.59,0-1.14-0.21-1.48-0.42l0.22-0.56
			c0.24,0.19,0.77,0.41,1.25,0.41c0.6,0,0.97-0.33,0.97-0.84c0-1.18-2.4-0.74-2.4-2.4c0-0.66,0.5-1.29,1.62-1.29
			c0.52,0,1.07,0.1,1.47,0.32l-0.18,0.56c-0.38-0.2-0.78-0.3-1.28-0.3C338.32,73.19,338.02,73.46,338.02,73.91z"/>
	</g>
	<line class="st101" x1="76.16" y1="40.82" x2="76.16" y2="80.77"/>
	<path class="st102" d="M76.16,82.24L76.16,82.24 M76.16,37.86L76.16,37.86"/>
	<line class="st101" x1="257.43" y1="40.82" x2="257.43" y2="80.77"/>
	<path class="st102" d="M257.43,82.24L257.43,82.24 M257.43,37.86L257.43,37.86"/>
	<rect x="142.05" y="23.59" class="st20" width="51.44" height="34.21"/>
	<rect x="140.32" y="21.96" class="st21" width="51.44" height="33.95"/>
	<polygon class="st103" points="180.63,53.26 180.63,47.93 184.11,47.93 184.11,53.26 182.37,51.39 	"/>
	<polygon class="st104" points="182.24,43.27 182.7,43.71 183.27,43.44 183.57,43.99 184.2,43.91 184.32,44.53 184.94,44.65 
		184.86,45.28 185.41,45.58 185.14,46.15 185.58,46.61 185.14,47.07 185.41,47.64 184.86,47.94 184.94,48.57 184.32,48.69 
		184.2,49.31 183.57,49.23 183.27,49.78 182.7,49.51 182.24,49.95 181.78,49.51 181.21,49.78 180.91,49.23 180.28,49.31 
		180.16,48.69 179.54,48.57 179.62,47.94 179.07,47.64 179.34,47.07 178.9,46.61 179.34,46.15 179.07,45.58 179.62,45.28 
		179.54,44.65 180.16,44.53 180.28,43.91 180.91,43.99 181.21,43.44 181.78,43.71 	"/>
	<g class="st5">
		<defs>
			<rect id="SVGID_51_" x="-447.2" y="-72.7" width="850.39" height="708.66"/>
		</defs>
		<clipPath id="SVGID_52_">
			<use xlink:href="#SVGID_51_"  style="overflow:visible;"/>
		</clipPath>
		<path class="st105" d="M180.56,44.97C180.56,44.97,180.56,44.97,180.56,44.97c-0.91,0.91-0.93,2.37-0.02,3.28
			c0.91,0.91,2.37,0.9,3.28-0.01l0,0L180.56,44.97z"/>
		<path class="st106" d="M183.82,48.23c0,0,0.04-0.04,0.04-0.04c0.91-0.91,0.92-2.37,0.01-3.28c-0.91-0.91-2.37-0.9-3.28,0.02
			c0,0-0.04,0.04-0.04,0.04L183.82,48.23z"/>
	</g>
	<polygon class="st1" points="182.24,47.34 181.37,47.95 181.67,46.94 180.83,46.29 181.89,46.27 182.24,45.27 182.59,46.27 
		183.65,46.29 182.8,46.94 183.11,47.95 	"/>
	<rect x="145.05" y="33.95" class="st107" width="41.98" height="1.12"/>
	<rect x="145.05" y="30.95" class="st107" width="41.98" height="1.12"/>
	<rect x="145.05" y="37.02" class="st107" width="41.98" height="1.31"/>
	<rect x="145.05" y="40.21" class="st107" width="31.86" height="1.12"/>
	<g class="st5">
		<defs>
			<rect id="SVGID_53_" x="-447.2" y="-72.7" width="850.39" height="708.66"/>
		</defs>
		<clipPath id="SVGID_54_">
			<use xlink:href="#SVGID_53_"  style="overflow:visible;"/>
		</clipPath>
		<path class="st108" d="M154.62,51.11h-8.06c-0.13,0-0.24-0.11-0.24-0.24c0-0.13,0.11-0.24,0.24-0.24h8.06
			c0.13,0,0.24,0.11,0.24,0.24C154.86,51,154.76,51.11,154.62,51.11"/>
	</g>
	<rect x="145.05" y="21.96" class="st109" width="3.09" height="5.9"/>
	<rect x="148.14" y="21.96" class="st110" width="3.66" height="5.9"/>
	<g class="st5">
		<path class="st95" d="M129.21,68.42h-1.28l1.83-6.75h2.18l1.77,6.75h-1.47l-0.35-1.52h-2.32L129.21,68.42z M130.55,62.83
			l-0.74,3.02h1.84l-0.69-3.02H130.55z"/>
		<path class="st95" d="M135.75,68.85v1.47h-1.33v-6.8h1.13l0.1,0.53c0.22-0.31,0.74-0.63,1.29-0.63c1.15,0,1.97,0.82,1.97,2.54
			c0,1.69-1,2.56-2.14,2.56c-0.56,0-0.88-0.19-1.19-0.57C135.58,67.95,135.75,68.49,135.75,68.85z M135.75,67.07
			c0.2,0.28,0.51,0.49,0.86,0.49c0.59,0,0.99-0.42,0.99-1.6c0-1.17-0.37-1.58-0.96-1.58c-0.34,0-0.68,0.18-0.89,0.4V67.07z"/>
		<path class="st95" d="M144.3,65.96c0,1.67-0.84,2.56-2.3,2.56c-1.47,0-2.3-0.88-2.3-2.56c0-1.44,0.8-2.54,2.3-2.54
			C143.48,63.42,144.3,64.52,144.3,65.96z M142.96,65.96c0-1.18-0.35-1.59-0.96-1.59s-0.95,0.42-0.95,1.59c0,1.14,0.31,1.6,0.95,1.6
			S142.96,67.13,142.96,65.96z"/>
		<path class="st95" d="M148.06,64.61c-0.16-0.05-0.39-0.08-0.61-0.08c-0.35,0-0.66,0.15-0.88,0.33v3.56h-1.3v-4.9h0.91l0.14,0.66
			h0.03c0.15-0.35,0.59-0.75,1.17-0.75c0.26,0,0.46,0.04,0.57,0.07L148.06,64.61z"/>
		<path class="st95" d="M150.66,68.52c-0.87,0-1.44-0.41-1.44-1.64v-2.43h-0.73v-0.93h0.73v-0.85l1.29-0.42v1.27h1.31v0.93h-1.31
			v2.4c0,0.34,0.17,0.56,0.52,0.56c0.27,0,0.55-0.08,0.75-0.18l0.2,0.96C151.69,68.36,151.18,68.52,150.66,68.52z"/>
		<path class="st95" d="M153.7,66.32c0,0.78,0.44,1.21,1.26,1.21c0.5,0,1.01-0.19,1.44-0.41l0.25,0.92
			c-0.41,0.22-1.08,0.48-1.85,0.48c-1.51,0-2.41-0.94-2.41-2.56c0-1.51,0.73-2.54,2.3-2.54c1.48,0,2.06,1.1,2.06,2.33v0.57H153.7z
			 M154.62,64.38c-0.65,0-0.92,0.59-0.92,1.17h1.79C155.49,64.92,155.3,64.38,154.62,64.38z"/>
		<path class="st95" d="M163.11,63.9c-0.08-0.28-0.12-0.53-0.12-0.9v-1.48h1.3v6.9h-1.06l-0.15-0.54c-0.2,0.3-0.67,0.64-1.3,0.64
			c-1.11,0-2-0.8-2-2.55c0-1.62,0.92-2.55,2.11-2.55C162.42,63.42,162.84,63.6,163.11,63.9z M162.99,64.64
			c-0.2-0.12-0.51-0.24-0.89-0.24c-0.62,0-1.01,0.42-1.01,1.56c0,1.17,0.37,1.61,0.99,1.61c0.33,0,0.66-0.16,0.91-0.42V64.64z"/>
		<path class="st95" d="M166.59,66.32c0,0.78,0.44,1.21,1.26,1.21c0.5,0,1.01-0.19,1.44-0.41l0.25,0.92
			c-0.41,0.22-1.08,0.48-1.85,0.48c-1.51,0-2.41-0.94-2.41-2.56c0-1.51,0.73-2.54,2.3-2.54c1.48,0,2.06,1.1,2.06,2.33v0.57H166.59z
			 M167.51,64.38c-0.65,0-0.92,0.59-0.92,1.17h1.79C168.38,64.92,168.19,64.38,167.51,64.38z"/>
		<path class="st95" d="M170.64,67.12v-5.6h1.29v5.53c0,0.41,0.25,0.47,0.79,0.47v0.92c0,0-0.38,0.08-0.72,0.08
			C171,68.52,170.64,67.99,170.64,67.12z"/>
		<path class="st95" d="M175.84,68.42v-6.75h4.15v1.11h-2.84v1.66h2.17l-0.1,1.16h-2.07v1.73h2.84v1.09H175.84z"/>
		<path class="st95" d="M181.94,64.81c0,0.76,2.12,0.53,2.12,2.13c0,0.89-0.66,1.58-1.93,1.58c-0.59,0-1.14-0.17-1.47-0.36
			l0.27-0.91c0.23,0.16,0.71,0.34,1.16,0.34c0.43,0,0.72-0.24,0.72-0.54c0-0.88-2.09-0.59-2.09-2.26c0-0.72,0.55-1.37,1.87-1.37
			c0.51,0,1.04,0.1,1.38,0.24l-0.18,0.95c-0.33-0.15-0.75-0.25-1.18-0.25C182.16,64.36,181.94,64.53,181.94,64.81z"/>
		<path class="st95" d="M186.9,68.52c-0.87,0-1.44-0.41-1.44-1.64v-2.43h-0.73v-0.93h0.73v-0.85l1.29-0.42v1.27h1.31v0.93h-1.31v2.4
			c0,0.34,0.17,0.56,0.52,0.56c0.27,0,0.55-0.08,0.75-0.18l0.2,0.96C187.93,68.36,187.42,68.52,186.9,68.52z"/>
		<path class="st95" d="M191.94,68.42l-0.18-0.58c-0.25,0.34-0.74,0.68-1.43,0.68c-0.98,0-1.64-0.63-1.64-1.57
			c0-0.91,0.67-1.45,1.85-1.45h1.03v-0.25c0-0.63-0.36-0.83-0.86-0.83c-0.58,0-1.07,0.15-1.47,0.33l-0.33-0.93
			c0.49-0.21,1.16-0.4,1.93-0.4c1.39,0,1.99,0.64,1.99,1.89v3.11H191.94z M191.57,66.28h-0.81c-0.54,0-0.79,0.26-0.79,0.63
			c0,0.45,0.24,0.72,0.73,0.72c0.31,0,0.63-0.14,0.87-0.33V66.28z"/>
		<path class="st95" d="M197.14,63.9c-0.08-0.28-0.12-0.53-0.12-0.9v-1.48h1.3v6.9h-1.06l-0.15-0.54c-0.2,0.3-0.67,0.64-1.3,0.64
			c-1.11,0-2-0.8-2-2.55c0-1.62,0.92-2.55,2.11-2.55C196.45,63.42,196.87,63.6,197.14,63.9z M197.02,64.64
			c-0.2-0.12-0.51-0.24-0.89-0.24c-0.62,0-1.01,0.42-1.01,1.56c0,1.17,0.37,1.61,0.99,1.61c0.33,0,0.66-0.16,0.91-0.42V64.64z"/>
		<path class="st95" d="M203.9,65.96c0,1.67-0.84,2.56-2.3,2.56c-1.47,0-2.3-0.88-2.3-2.56c0-1.44,0.8-2.54,2.3-2.54
			C203.08,63.42,203.9,64.52,203.9,65.96z M202.56,65.96c0-1.18-0.35-1.59-0.96-1.59s-0.95,0.42-0.95,1.59c0,1.14,0.31,1.6,0.95,1.6
			S202.56,67.13,202.56,65.96z"/>
	</g>
	<g class="st5">
		<path class="st95" d="M98.91,73.91c0,1.05,2.43,0.68,2.43,2.34c0,0.79-0.61,1.46-1.7,1.46c-0.59,0-1.14-0.21-1.48-0.42l0.22-0.56
			c0.24,0.19,0.77,0.41,1.25,0.41c0.6,0,0.97-0.33,0.97-0.84c0-1.18-2.4-0.74-2.4-2.4c0-0.66,0.5-1.29,1.62-1.29
			c0.52,0,1.07,0.1,1.47,0.32l-0.18,0.56c-0.38-0.2-0.78-0.3-1.28-0.3C99.21,73.19,98.91,73.46,98.91,73.91z"/>
		<path class="st95" d="M105.72,77.61l-0.11-0.56c-0.24,0.27-0.78,0.66-1.52,0.66c-1.09,0-1.69-0.65-1.69-1.99v-3.01h0.76v2.96
			c0,1.01,0.32,1.43,1.11,1.43c0.47,0,0.9-0.22,1.21-0.48v-3.91h0.77v4.9H105.72z"/>
		<path class="st95" d="M108.19,73.27c0.33-0.36,0.9-0.66,1.46-0.66c1.25,0,1.9,0.89,1.9,2.54c0,1.73-0.86,2.56-2.04,2.56
			c-0.63,0-1.07-0.27-1.42-0.63l-0.16,0.53h-0.42v-6.9h0.76v1.9L108.19,73.27z M108.27,76.58c0.31,0.32,0.75,0.56,1.19,0.56
			c0.86,0,1.32-0.58,1.32-1.99c0-1.29-0.38-1.96-1.27-1.96c-0.47,0-0.95,0.25-1.24,0.55V76.58z"/>
		<path class="st95" d="M113.27,73.91c0,1.05,2.43,0.68,2.43,2.34c0,0.79-0.61,1.46-1.7,1.46c-0.59,0-1.14-0.21-1.48-0.42l0.22-0.56
			c0.24,0.19,0.77,0.41,1.25,0.41c0.6,0,0.97-0.33,0.97-0.84c0-1.18-2.4-0.74-2.4-2.4c0-0.66,0.5-1.29,1.62-1.29
			c0.52,0,1.07,0.1,1.47,0.32l-0.18,0.56c-0.38-0.2-0.78-0.3-1.28-0.3C113.57,73.19,113.27,73.46,113.27,73.91z"/>
		<path class="st95" d="M117.21,77.61v-4.29l-0.54-0.11v-0.5h1.28v4.9H117.21z M117.14,70.79h0.81v0.8h-0.81V70.79z"/>
		<path class="st95" d="M122.51,77.02c-0.28,0.37-0.83,0.69-1.41,0.69c-1.16,0-1.97-0.86-1.97-2.56c0-1.49,0.74-2.54,2.05-2.54
			c0.61,0,1.03,0.2,1.31,0.42c-0.03-0.26-0.04-0.51-0.04-0.8v-1.52h0.76v6.9h-0.57L122.51,77.02z M122.45,73.54
			c-0.23-0.16-0.64-0.35-1.19-0.35c-0.92,0-1.36,0.72-1.36,1.96c0,1.21,0.39,1.99,1.31,1.99c0.44,0,0.84-0.19,1.24-0.62V73.54z"/>
		<path class="st95" d="M124.92,77.61v-4.29l-0.54-0.11v-0.5h1.28v4.9H124.92z M124.85,70.79h0.81v0.8h-0.81V70.79z"/>
		<path class="st95" d="M131.02,75.15c0,1.65-0.8,2.56-2.11,2.56c-1.33,0-2.09-0.89-2.09-2.56c0-1.44,0.68-2.54,2.09-2.54
			C130.27,72.61,131.02,73.69,131.02,75.15z M130.24,75.15c0-1.28-0.43-1.97-1.33-1.97c-0.92,0-1.32,0.72-1.32,1.97
			c0,1.2,0.35,1.99,1.32,1.99C129.86,77.14,130.24,76.46,130.24,75.15z"/>
		<path class="st95" d="M135.05,73.27c0.33-0.36,0.9-0.66,1.46-0.66c1.25,0,1.9,0.89,1.9,2.54c0,1.73-0.86,2.56-2.04,2.56
			c-0.63,0-1.07-0.27-1.42-0.63l-0.16,0.53h-0.42v-6.9h0.76v1.9L135.05,73.27z M135.13,76.58c0.31,0.32,0.75,0.56,1.19,0.56
			c0.86,0,1.32-0.58,1.32-1.99c0-1.29-0.38-1.96-1.27-1.96c-0.47,0-0.95,0.25-1.24,0.55V76.58z"/>
		<path class="st95" d="M142.6,77.61l-0.13-0.63c-0.29,0.37-0.82,0.73-1.51,0.73c-1,0-1.58-0.67-1.58-1.5c0-0.85,0.62-1.4,1.73-1.4
			h1.27v-0.39c0-0.85-0.37-1.21-1.11-1.21c-0.62,0-1.12,0.16-1.48,0.32l-0.2-0.55c0.39-0.17,0.97-0.37,1.78-0.37
			c1.16,0,1.75,0.6,1.75,1.77v3.23H142.6z M142.38,75.33h-1.15c-0.83,0-1.11,0.36-1.11,0.85c0,0.59,0.32,0.98,1.03,0.98
			c0.48,0,0.94-0.28,1.23-0.61V75.33z"/>
		<path class="st95" d="M144.98,73.91c0,1.05,2.43,0.68,2.43,2.34c0,0.79-0.61,1.46-1.7,1.46c-0.59,0-1.14-0.21-1.48-0.42l0.22-0.56
			c0.24,0.19,0.77,0.41,1.25,0.41c0.6,0,0.97-0.33,0.97-0.84c0-1.18-2.4-0.74-2.4-2.4c0-0.66,0.5-1.29,1.62-1.29
			c0.52,0,1.07,0.1,1.47,0.32l-0.18,0.56c-0.38-0.2-0.78-0.3-1.28-0.3C145.28,73.19,144.98,73.46,144.98,73.91z"/>
		<path class="st95" d="M149.13,75.38c0,1.21,0.62,1.74,1.55,1.74c0.63,0,1.19-0.29,1.52-0.49l0.19,0.54
			c-0.41,0.25-1.05,0.54-1.79,0.54c-1.34,0-2.23-0.89-2.23-2.58c0-1.55,0.76-2.52,2.1-2.52c1.38,0,1.96,1.11,1.96,2.34v0.43H149.13z
			 M150.44,73.19c-0.93,0-1.31,0.82-1.31,1.66h2.56C151.69,74,151.4,73.19,150.44,73.19z"/>
		<path class="st95" d="M157.71,74.96v1.49h-0.59v-1.49h-1.34V74.4h1.34v-1.42h0.59v1.42h1.39v0.56H157.71z"/>
		<path class="st95" d="M166.23,77.28c-0.3,0.17-0.92,0.43-1.63,0.43c-1.24,0-2.14-0.73-2.14-2.55c0-1.66,0.91-2.55,2.14-2.55
			c0.56,0,1.16,0.12,1.6,0.39l-0.22,0.54c-0.38-0.22-0.84-0.32-1.34-0.32c-0.88,0-1.42,0.7-1.42,1.94c0,1.38,0.54,1.96,1.42,1.96
			c0.57,0,1.06-0.2,1.41-0.41L166.23,77.28z"/>
		<path class="st95" d="M171.26,75.15c0,1.65-0.8,2.56-2.11,2.56c-1.33,0-2.09-0.89-2.09-2.56c0-1.44,0.68-2.54,2.09-2.54
			C170.51,72.61,171.26,73.69,171.26,75.15z M170.48,75.15c0-1.28-0.43-1.97-1.33-1.97c-0.92,0-1.32,0.72-1.32,1.97
			c0,1.2,0.35,1.99,1.32,1.99C170.1,77.14,170.48,76.46,170.48,75.15z"/>
		<path class="st95" d="M176.22,74.52v3.09h-0.77v-2.96c0-0.93-0.27-1.44-1.1-1.44c-0.52,0-0.88,0.29-1.18,0.56v3.84h-0.76v-4.9h0.5
			l0.16,0.59c0.28-0.29,0.77-0.69,1.49-0.69c0.73,0,1.2,0.26,1.44,0.75c0.28-0.31,0.82-0.75,1.53-0.75c1.2,0,1.73,0.67,1.73,1.91
			v3.09h-0.77v-2.96c0-0.93-0.35-1.44-1.18-1.44c-0.46,0-0.87,0.27-1.17,0.56C176.2,73.99,176.22,74.24,176.22,74.52z"/>
		<path class="st95" d="M181.22,77.94v1.57h-0.77v-6.8h0.59l0.12,0.58c0.34-0.38,0.86-0.68,1.43-0.68c1.25,0,1.87,0.89,1.87,2.54
			c0,1.73-0.86,2.56-2.03,2.56c-0.59,0-0.97-0.21-1.32-0.56C181.11,77.15,181.22,77.63,181.22,77.94z M181.22,76.61
			c0.3,0.31,0.71,0.53,1.16,0.53c0.89,0,1.31-0.58,1.31-1.99c0-1.29-0.37-1.95-1.26-1.95c-0.48,0-0.92,0.27-1.21,0.57V76.61z"/>
		<path class="st95" d="M185.66,76.26v-5.55h0.75v5.83c0,0.42,0.19,0.59,0.73,0.59h0.16v0.52c0,0-0.24,0.06-0.48,0.06
			C185.89,77.71,185.66,77.18,185.66,76.26z"/>
		<path class="st95" d="M188.85,75.38c0,1.21,0.62,1.74,1.55,1.74c0.63,0,1.19-0.29,1.52-0.49l0.19,0.54
			c-0.41,0.25-1.05,0.54-1.79,0.54c-1.34,0-2.23-0.89-2.23-2.58c0-1.55,0.76-2.52,2.1-2.52c1.38,0,1.96,1.11,1.96,2.34v0.43H188.85z
			 M190.16,73.19c-0.93,0-1.31,0.82-1.31,1.66h2.56C191.41,74,191.12,73.19,190.16,73.19z"/>
		<path class="st95" d="M197.12,74.52v3.09h-0.77v-2.96c0-0.93-0.27-1.44-1.1-1.44c-0.52,0-0.88,0.29-1.18,0.56v3.84h-0.76v-4.9h0.5
			l0.16,0.59c0.28-0.29,0.77-0.69,1.49-0.69c0.73,0,1.2,0.26,1.44,0.75c0.28-0.31,0.82-0.75,1.53-0.75c1.2,0,1.73,0.67,1.73,1.91
			v3.09h-0.77v-2.96c0-0.93-0.35-1.44-1.18-1.44c-0.46,0-0.87,0.27-1.17,0.56C197.1,73.99,197.12,74.24,197.12,74.52z"/>
		<path class="st95" d="M201.95,75.38c0,1.21,0.62,1.74,1.55,1.74c0.63,0,1.19-0.29,1.52-0.49l0.19,0.54
			c-0.41,0.25-1.05,0.54-1.79,0.54c-1.34,0-2.23-0.89-2.23-2.58c0-1.55,0.76-2.52,2.1-2.52c1.38,0,1.96,1.11,1.96,2.34v0.43H201.95z
			 M203.26,73.19c-0.93,0-1.31,0.82-1.31,1.66h2.56C204.51,74,204.22,73.19,203.26,73.19z"/>
		<path class="st95" d="M209.49,77.61v-2.96c0-0.93-0.29-1.44-1.12-1.44c-0.51,0-0.9,0.29-1.2,0.56v3.84h-0.76v-4.9h0.51l0.15,0.58
			c0.28-0.29,0.8-0.68,1.54-0.68c1.15,0,1.66,0.69,1.66,1.91v3.09H209.49z"/>
		<path class="st95" d="M213.14,77.71c-0.69,0-1.26-0.35-1.26-1.5v-2.95h-0.74v-0.55h0.74v-0.89l0.76-0.24v1.13h1.43v0.55h-1.43
			v3.04c0,0.52,0.19,0.77,0.65,0.77c0.26,0,0.62-0.13,0.78-0.21l0.15,0.56C214.01,77.55,213.54,77.71,213.14,77.71z"/>
		<path class="st95" d="M218.09,77.61l-0.13-0.63c-0.29,0.37-0.82,0.73-1.51,0.73c-1,0-1.58-0.67-1.58-1.5c0-0.85,0.62-1.4,1.73-1.4
			h1.27v-0.39c0-0.85-0.37-1.21-1.11-1.21c-0.62,0-1.12,0.16-1.48,0.32l-0.2-0.55c0.39-0.17,0.97-0.37,1.78-0.37
			c1.16,0,1.75,0.6,1.75,1.77v3.23H218.09z M217.87,75.33h-1.15c-0.83,0-1.11,0.36-1.11,0.85c0,0.59,0.32,0.98,1.03,0.98
			c0.48,0,0.94-0.28,1.23-0.61V75.33z"/>
		<path class="st95" d="M222.4,73.37c-0.14-0.05-0.36-0.09-0.63-0.09c-0.47,0-0.85,0.27-1.1,0.53v3.8h-0.76v-4.9h0.51l0.14,0.62
			c0.21-0.28,0.64-0.69,1.27-0.69c0.36,0,0.58,0.07,0.62,0.08L222.4,73.37z"/>
		<path class="st95" d="M223.69,77.61v-4.29l-0.54-0.11v-0.5h1.28v4.9H223.69z M223.62,70.79h0.81v0.8h-0.81V70.79z"/>
		<path class="st95" d="M229.78,75.15c0,1.65-0.8,2.56-2.11,2.56c-1.33,0-2.09-0.89-2.09-2.56c0-1.44,0.68-2.54,2.09-2.54
			C229.03,72.61,229.78,73.69,229.78,75.15z M229.01,75.15c0-1.28-0.43-1.97-1.33-1.97c-0.92,0-1.32,0.72-1.32,1.97
			c0,1.2,0.35,1.99,1.32,1.99C228.63,77.14,229.01,76.46,229.01,75.15z"/>
		<path class="st95" d="M231.5,73.91c0,1.05,2.43,0.68,2.43,2.34c0,0.79-0.61,1.46-1.7,1.46c-0.59,0-1.14-0.21-1.48-0.42l0.22-0.56
			c0.24,0.19,0.77,0.41,1.25,0.41c0.6,0,0.97-0.33,0.97-0.84c0-1.18-2.4-0.74-2.4-2.4c0-0.66,0.5-1.29,1.62-1.29
			c0.52,0,1.07,0.1,1.47,0.32l-0.18,0.56c-0.38-0.2-0.78-0.3-1.28-0.3C231.8,73.19,231.5,73.46,231.5,73.91z"/>
	</g>
	<rect x="74.6" y="65.38" class="st111" width="3.12" height="9.23"/>
	<rect x="71.54" y="68.43" class="st111" width="9.23" height="3.12"/>
	<rect x="255.87" y="65.38" class="st111" width="3.12" height="9.23"/>
	<rect x="252.82" y="68.43" class="st111" width="9.23" height="3.12"/>
</g>
</svg>
